<svg width="199" height="51" viewBox="0 0 199 51" fill="#1DBB2D" xmlns="http://www.w3.org/2000/svg">
<g filter="url(#filter0_d_1_222)">
<path d="M60.264 32.248C60.264 33.256 60.016 34.136 59.52 34.888C59.024 35.64 58.304 36.224 57.36 36.64C56.432 37.04 55.296 37.24 53.952 37.24C53.36 37.24 52.776 37.2 52.2 37.12C51.64 37.04 51.096 36.928 50.568 36.784C50.056 36.624 49.568 36.432 49.104 36.208V32.824C49.92 33.176 50.76 33.504 51.624 33.808C52.504 34.096 53.376 34.24 54.24 34.24C54.832 34.24 55.304 34.16 55.656 34C56.024 33.84 56.288 33.624 56.448 33.352C56.624 33.08 56.712 32.768 56.712 32.416C56.712 31.984 56.56 31.616 56.256 31.312C55.968 31.008 55.576 30.728 55.08 30.472C54.584 30.2 54.016 29.912 53.376 29.608C52.976 29.416 52.544 29.192 52.08 28.936C51.616 28.664 51.168 28.336 50.736 27.952C50.32 27.552 49.976 27.072 49.704 26.512C49.432 25.952 49.296 25.28 49.296 24.496C49.296 23.472 49.528 22.6 49.992 21.88C50.472 21.144 51.144 20.584 52.008 20.2C52.888 19.816 53.92 19.624 55.104 19.624C56 19.624 56.848 19.728 57.648 19.936C58.464 20.144 59.312 20.44 60.192 20.824L59.016 23.656C58.232 23.336 57.528 23.088 56.904 22.912C56.28 22.736 55.64 22.648 54.984 22.648C54.536 22.648 54.152 22.72 53.832 22.864C53.512 23.008 53.264 23.208 53.088 23.464C52.928 23.72 52.848 24.024 52.848 24.376C52.848 24.776 52.968 25.12 53.208 25.408C53.448 25.68 53.808 25.944 54.288 26.2C54.768 26.456 55.368 26.76 56.088 27.112C56.968 27.528 57.712 27.96 58.32 28.408C58.944 28.856 59.424 29.384 59.76 29.992C60.096 30.6 60.264 31.352 60.264 32.248ZM77.4188 37H73.7948V29.608H67.0028V37H63.3788V19.864H67.0028V26.584H73.7948V19.864H77.4188V37ZM97.2823 28.408C97.2823 29.736 97.1143 30.944 96.7783 32.032C96.4583 33.104 95.9623 34.032 95.2903 34.816C94.6343 35.6 93.7863 36.2 92.7463 36.616C91.7223 37.032 90.5143 37.24 89.1223 37.24C87.7303 37.24 86.5143 37.032 85.4743 36.616C84.4503 36.184 83.6023 35.584 82.9303 34.816C82.2743 34.032 81.7783 33.096 81.4423 32.008C81.1223 30.92 80.9623 29.712 80.9623 28.384C80.9623 26.608 81.2503 25.064 81.8263 23.752C82.4183 22.44 83.3143 21.424 84.5143 20.704C85.7303 19.968 87.2743 19.6 89.1463 19.6C91.0023 19.6 92.5303 19.968 93.7303 20.704C94.9303 21.424 95.8183 22.448 96.3943 23.776C96.9863 25.088 97.2823 26.632 97.2823 28.408ZM84.7783 28.408C84.7783 29.608 84.9303 30.64 85.2343 31.504C85.5383 32.368 86.0103 33.032 86.6503 33.496C87.2903 33.96 88.1143 34.192 89.1223 34.192C90.1623 34.192 90.9943 33.96 91.6183 33.496C92.2583 33.032 92.7223 32.368 93.0103 31.504C93.3143 30.64 93.4663 29.608 93.4663 28.408C93.4663 26.6 93.1303 25.184 92.4583 24.16C91.7863 23.136 90.6823 22.624 89.1463 22.624C88.1223 22.624 87.2903 22.856 86.6503 23.32C86.0103 23.784 85.5383 24.448 85.2343 25.312C84.9303 26.176 84.7783 27.208 84.7783 28.408ZM106.304 19.864C108.512 19.864 110.12 20.344 111.128 21.304C112.152 22.248 112.664 23.552 112.664 25.216C112.664 25.968 112.552 26.688 112.328 27.376C112.104 28.048 111.728 28.656 111.2 29.2C110.688 29.728 110.008 30.144 109.16 30.448C108.312 30.752 107.264 30.904 106.016 30.904H104.456V37H100.832V19.864H106.304ZM106.112 22.84H104.456V27.928H105.656C106.344 27.928 106.936 27.84 107.432 27.664C107.928 27.488 108.312 27.208 108.584 26.824C108.856 26.44 108.992 25.944 108.992 25.336C108.992 24.488 108.76 23.864 108.296 23.464C107.832 23.048 107.104 22.84 106.112 22.84ZM121.23 26.92L124.806 19.864H128.718L123.03 30.328V37H119.43V30.448L113.742 19.864H117.678L121.23 26.92Z"/>
<path d="M59.52 34.888L58.6852 34.3374L58.6852 34.3374L59.52 34.888ZM57.36 36.64L57.7558 37.5584L57.7633 37.5551L57.36 36.64ZM52.2 37.12L52.0586 38.11L52.0624 38.1105L52.2 37.12ZM50.568 36.784L50.2697 37.7385L50.2872 37.7439L50.3049 37.7488L50.568 36.784ZM49.104 36.208H48.104V36.8357L48.6693 37.1086L49.104 36.208ZM49.104 32.824L49.5001 31.9058L48.104 31.3036V32.824H49.104ZM51.624 33.808L51.2921 34.7513L51.3025 34.755L51.313 34.7584L51.624 33.808ZM55.656 34L55.2573 33.0829L55.2497 33.0862L55.2422 33.0896L55.656 34ZM56.448 33.352L55.6084 32.8087L55.5969 32.8266L55.5861 32.845L56.448 33.352ZM56.256 31.312L55.53 31.9997L55.5393 32.0096L55.5489 32.0191L56.256 31.312ZM55.08 30.472L54.5992 31.3488L54.6102 31.3549L54.6214 31.3606L55.08 30.472ZM53.376 29.608L52.9433 30.5095L52.9469 30.5113L53.376 29.608ZM52.08 28.936L51.5743 29.7987L51.5855 29.8053L51.5969 29.8116L52.08 28.936ZM50.736 27.952L50.0429 28.6728L50.057 28.6864L50.0716 28.6994L50.736 27.952ZM49.704 26.512L48.8045 26.9489L48.8045 26.9489L49.704 26.512ZM49.992 21.88L49.1544 21.3337L49.1514 21.3383L49.992 21.88ZM52.008 20.2L51.608 19.2834L51.6019 19.2862L52.008 20.2ZM57.648 19.936L57.3964 20.9038L57.401 20.905L57.648 19.936ZM60.192 20.824L61.1155 21.2075L61.4923 20.3003L60.5919 19.9075L60.192 20.824ZM59.016 23.656L58.6381 24.5818L59.5584 24.9575L59.9395 24.0395L59.016 23.656ZM56.904 22.912L56.6325 23.8744L56.6325 23.8744L56.904 22.912ZM53.832 22.864L54.2424 23.7759L54.2424 23.7759L53.832 22.864ZM53.088 23.464L52.264 22.8975L52.2516 22.9155L52.24 22.934L53.088 23.464ZM53.208 25.408L52.4398 26.0482L52.4488 26.059L52.4582 26.0696L53.208 25.408ZM54.288 26.2L54.7586 25.3176L54.7586 25.3176L54.288 26.2ZM56.088 27.112L55.6488 28.0105L55.6606 28.0161L56.088 27.112ZM58.32 28.408L57.7268 29.2131L57.7368 29.2203L58.32 28.408ZM59.76 29.992L58.8848 30.4757L58.8848 30.4757L59.76 29.992ZM59.264 32.248C59.264 33.0844 59.0609 33.7678 58.6852 34.3374L60.3548 35.4386C60.9711 34.5042 61.264 33.4276 61.264 32.248H59.264ZM58.6852 34.3374C58.3098 34.9066 57.7511 35.3749 56.9567 35.7249L57.7633 37.5551C58.8569 37.0731 59.7382 36.3734 60.3548 35.4386L58.6852 34.3374ZM56.9642 35.7217C56.1951 36.0532 55.2025 36.24 53.952 36.24V38.24C55.3895 38.24 56.6689 38.0268 57.7558 37.5583L56.9642 35.7217ZM53.952 36.24C53.4052 36.24 52.8672 36.2031 52.3376 36.1295L52.0624 38.1105C52.6848 38.1969 53.3148 38.24 53.952 38.24V36.24ZM52.3414 36.1301C51.8211 36.0557 51.3178 35.952 50.8311 35.8192L50.3049 37.7488C50.8742 37.904 51.4589 38.0243 52.0586 38.1099L52.3414 36.1301ZM50.8663 35.8295C50.3991 35.6835 49.9569 35.5093 49.5387 35.3074L48.6693 37.1086C49.1791 37.3547 49.7129 37.5645 50.2697 37.7385L50.8663 35.8295ZM50.104 36.208V32.824H48.104V36.208H50.104ZM48.7079 33.7422C49.5456 34.1036 50.4071 34.4399 51.2921 34.7513L51.9559 32.8647C51.1129 32.5681 50.2944 32.2484 49.5001 31.9058L48.7079 33.7422ZM51.313 34.7584C52.2862 35.0769 53.263 35.24 54.24 35.24V33.24C53.489 33.24 52.7218 33.1151 51.935 32.8576L51.313 34.7584ZM54.24 35.24C54.9063 35.24 55.5374 35.1524 56.0698 34.9104L55.2422 33.0896C55.0706 33.1676 54.7577 33.24 54.24 33.24V35.24ZM56.0547 34.9171C56.5636 34.6958 57.0168 34.3574 57.3099 33.859L55.5861 32.845C55.5592 32.8906 55.4844 32.9842 55.2573 33.0829L56.0547 34.9171ZM57.2876 33.8953C57.5773 33.4474 57.712 32.9434 57.712 32.416H55.712C55.712 32.5926 55.6707 32.7126 55.6084 32.8087L57.2876 33.8953ZM57.712 32.416C57.712 31.7202 57.4557 31.0974 56.9631 30.6049L55.5489 32.0191C55.6643 32.1346 55.712 32.2478 55.712 32.416H57.712ZM56.982 30.6243C56.5959 30.2167 56.1032 29.8748 55.5386 29.5834L54.6214 31.3606C55.0488 31.5812 55.3401 31.7993 55.53 31.9997L56.982 30.6243ZM55.5608 29.5952C55.0442 29.3119 54.4584 29.0151 53.8051 28.7047L52.9469 30.5113C53.5736 30.8089 54.1238 31.0881 54.5992 31.3488L55.5608 29.5952ZM53.8087 28.7065C53.4286 28.524 53.0136 28.309 52.5631 28.0604L51.5969 29.8116C52.0744 30.075 52.5234 30.308 52.9433 30.5095L53.8087 28.7065ZM52.5857 28.0733C52.1823 27.8368 51.787 27.5483 51.4004 27.2046L50.0716 28.6994C50.549 29.1237 51.0497 29.4912 51.5743 29.7987L52.5857 28.0733ZM51.4291 27.2312C51.1046 26.9191 50.8281 26.5374 50.6035 26.0751L48.8045 26.9489C49.1239 27.6066 49.5354 28.1849 50.0429 28.6728L51.4291 27.2312ZM50.6035 26.0751C50.4125 25.6819 50.296 25.1668 50.296 24.496H48.296C48.296 25.3932 48.4515 26.2221 48.8045 26.9489L50.6035 26.0751ZM50.296 24.496C50.296 23.6261 50.4915 22.951 50.8326 22.4217L49.1514 21.3383C48.5645 22.249 48.296 23.3179 48.296 24.496H50.296ZM50.8296 22.4263C51.1962 21.8642 51.7124 21.4257 52.4141 21.1138L51.6019 19.2862C50.5756 19.7423 49.7478 20.4238 49.1544 21.3337L50.8296 22.4263ZM52.4079 21.1165C53.136 20.7988 54.0264 20.624 55.104 20.624V18.624C53.8136 18.624 52.64 18.8332 51.6081 19.2835L52.4079 21.1165ZM55.104 20.624C55.9222 20.624 56.6851 20.7189 57.3964 20.9038L57.8996 18.9682C57.0109 18.7371 56.0778 18.624 55.104 18.624V20.624ZM57.401 20.905C58.158 21.098 58.9548 21.3752 59.7921 21.7405L60.5919 19.9075C59.6692 19.5048 58.77 19.19 57.895 18.967L57.401 20.905ZM59.2685 20.4405L58.0925 23.2725L59.9395 24.0395L61.1155 21.2075L59.2685 20.4405ZM59.3939 22.7302C58.585 22.4 57.8446 22.1383 57.1755 21.9495L56.6325 23.8744C57.2114 24.0377 57.879 24.272 58.6381 24.5818L59.3939 22.7302ZM57.1755 21.9496C56.4621 21.7483 55.7307 21.648 54.984 21.648V23.648C55.5493 23.648 56.0979 23.7237 56.6325 23.8744L57.1755 21.9496ZM54.984 21.648C54.4322 21.648 53.9011 21.7363 53.4216 21.9521L54.2424 23.7759C54.4029 23.7037 54.6398 23.648 54.984 23.648V21.648ZM53.4216 21.9521C52.9569 22.1612 52.5566 22.4718 52.264 22.8975L53.912 24.0305C53.9714 23.9442 54.0671 23.8548 54.2424 23.7759L53.4216 21.9521ZM52.24 22.934C51.9651 23.3738 51.848 23.8682 51.848 24.376H53.848C53.848 24.1798 53.8909 24.0662 53.936 23.994L52.24 22.934ZM51.848 24.376C51.848 24.993 52.0395 25.5679 52.4398 26.0482L53.9762 24.7678C53.8965 24.6721 53.848 24.559 53.848 24.376H51.848ZM52.4582 26.0696C52.8065 26.4643 53.2794 26.7954 53.8174 27.0824L54.7586 25.3176C54.3366 25.0926 54.0896 24.8957 53.9578 24.7464L52.4582 26.0696ZM53.8174 27.0824C54.3114 27.3458 54.9227 27.6554 55.6488 28.0104L56.5272 26.2136C55.8133 25.8646 55.2246 25.5662 54.7586 25.3176L53.8174 27.0824ZM55.6606 28.0161C56.498 28.4119 57.1831 28.8124 57.7268 29.2131L58.9132 27.6029C58.2409 27.1076 57.438 26.6441 56.5154 26.2079L55.6606 28.0161ZM57.7368 29.2203C58.2532 29.591 58.6278 30.0107 58.8848 30.4757L60.6352 29.5083C60.2202 28.7573 59.6348 28.121 58.9032 27.5957L57.7368 29.2203ZM58.8848 30.4757C59.1186 30.8988 59.264 31.4734 59.264 32.248H61.264C61.264 31.2306 61.0734 30.3012 60.6352 29.5083L58.8848 30.4757ZM77.4188 37V38H78.4188V37H77.4188ZM73.7948 37H72.7948V38H73.7948V37ZM73.7948 29.608H74.7948V28.608H73.7948V29.608ZM67.0028 29.608V28.608H66.0028V29.608H67.0028ZM67.0028 37V38H68.0028V37H67.0028ZM63.3788 37H62.3788V38H63.3788V37ZM63.3788 19.864V18.864H62.3788V19.864H63.3788ZM67.0028 19.864H68.0028V18.864H67.0028V19.864ZM67.0028 26.584H66.0028V27.584H67.0028V26.584ZM73.7948 26.584V27.584H74.7948V26.584H73.7948ZM73.7948 19.864V18.864H72.7948V19.864H73.7948ZM77.4188 19.864H78.4188V18.864H77.4188V19.864ZM77.4188 36H73.7948V38H77.4188V36ZM74.7948 37V29.608H72.7948V37H74.7948ZM73.7948 28.608H67.0028V30.608H73.7948V28.608ZM66.0028 29.608V37H68.0028V29.608H66.0028ZM67.0028 36H63.3788V38H67.0028V36ZM64.3788 37V19.864H62.3788V37H64.3788ZM63.3788 20.864H67.0028V18.864H63.3788V20.864ZM66.0028 19.864V26.584H68.0028V19.864H66.0028ZM67.0028 27.584H73.7948V25.584H67.0028V27.584ZM74.7948 26.584V19.864H72.7948V26.584H74.7948ZM73.7948 20.864H77.4188V18.864H73.7948V20.864ZM76.4188 19.864V37H78.4188V19.864H76.4188ZM96.7783 32.032L95.8228 31.7369L95.8201 31.746L96.7783 32.032ZM95.2903 34.816L94.531 34.1652L94.5234 34.1743L95.2903 34.816ZM92.7463 36.616L92.3749 35.6875L92.3699 35.6895L92.7463 36.616ZM85.4743 36.616L85.0856 37.5374L85.0942 37.541L85.1029 37.5445L85.4743 36.616ZM82.9303 34.816L82.1634 35.4577L82.1705 35.4662L82.1777 35.4745L82.9303 34.816ZM81.4423 32.008L80.4829 32.2902L80.4868 32.3031L81.4423 32.008ZM81.8263 23.752L80.9148 23.3407L80.9107 23.35L81.8263 23.752ZM84.5143 20.704L85.0288 21.5615L85.0321 21.5595L84.5143 20.704ZM93.7303 20.704L93.2075 21.5565L93.2158 21.5615L93.7303 20.704ZM96.3943 23.776L95.4769 24.1739L95.4798 24.1806L95.4828 24.1873L96.3943 23.776ZM86.6503 33.496L87.2373 32.6864L87.2373 32.6864L86.6503 33.496ZM91.6183 33.496L91.0313 32.6863L91.0216 32.6935L91.6183 33.496ZM93.0103 31.504L92.067 31.1721L92.0642 31.1799L92.0616 31.1878L93.0103 31.504ZM92.4583 24.16L91.6223 24.7087L91.6223 24.7087L92.4583 24.16ZM86.6503 23.32L86.0633 22.5104L86.0633 22.5104L86.6503 23.32ZM96.2823 28.408C96.2823 29.6522 96.1249 30.7588 95.8228 31.7369L97.7338 32.3271C98.1037 31.1291 98.2823 29.8198 98.2823 28.408H96.2823ZM95.8201 31.746C95.5368 32.6951 95.1045 33.4961 94.5311 34.1652L96.0496 35.4668C96.8201 34.5679 97.3799 33.5129 97.7365 32.318L95.8201 31.746ZM94.5234 34.1743C93.9834 34.8196 93.2764 35.3269 92.3749 35.6875L93.1177 37.5445C94.2962 37.0731 95.2852 36.3804 96.0572 35.4577L94.5234 34.1743ZM92.3699 35.6895C91.4921 36.0462 90.4175 36.24 89.1223 36.24V38.24C90.6111 38.24 91.9525 38.0178 93.1227 37.5425L92.3699 35.6895ZM89.1223 36.24C87.8277 36.24 86.7427 36.0463 85.8457 35.6875L85.1029 37.5445C86.2859 38.0177 87.6329 38.24 89.1223 38.24V36.24ZM85.863 35.6946C84.966 35.3162 84.2464 34.8015 83.6829 34.1575L82.1777 35.4745C82.9582 36.3665 83.9346 37.0518 85.0856 37.5374L85.863 35.6946ZM83.6972 34.1743C83.1357 33.5032 82.6991 32.6885 82.3978 31.7129L80.4868 32.3031C80.8576 33.5035 81.4129 34.5608 82.1634 35.4577L83.6972 34.1743ZM82.4017 31.7258C82.1128 30.7435 81.9623 29.6324 81.9623 28.384H79.9623C79.9623 29.7916 80.1319 31.0965 80.4829 32.2902L82.4017 31.7258ZM81.9623 28.384C81.9623 26.7142 82.2332 25.3128 82.742 24.154L80.9107 23.35C80.2674 24.8152 79.9623 26.5018 79.9623 28.384H81.9623ZM82.7378 24.1633C83.2486 23.0313 84.0087 22.1735 85.0288 21.5615L83.9998 19.8465C82.6199 20.6745 81.5881 21.8487 80.9148 23.3407L82.7378 24.1633ZM85.0321 21.5595C86.0498 20.9435 87.4004 20.6 89.1463 20.6V18.6C87.1482 18.6 85.4108 18.9925 83.9965 19.8485L85.0321 21.5595ZM89.1463 20.6C90.8751 20.6 92.2074 20.9431 93.2075 21.5564L94.2531 19.8516C92.8532 18.9929 91.1295 18.6 89.1463 18.6V20.6ZM93.2158 21.5615C94.2304 22.1702 94.9809 23.0304 95.4769 24.1739L97.3117 23.3781C96.6557 21.8656 95.6302 20.6778 94.2448 19.8465L93.2158 21.5615ZM95.4828 24.1873C96.0045 25.3435 96.2823 26.7415 96.2823 28.408H98.2823C98.2823 26.5225 97.9681 24.8325 97.3058 23.3647L95.4828 24.1873ZM83.7783 28.408C83.7783 29.688 83.9399 30.838 84.291 31.8359L86.1776 31.1721C85.9207 30.442 85.7783 29.528 85.7783 28.408H83.7783ZM84.291 31.8359C84.6514 32.8603 85.2338 33.7042 86.0633 34.3056L87.2373 32.6864C86.7868 32.3598 86.4252 31.8757 86.1776 31.1721L84.291 31.8359ZM86.0633 34.3056C86.9158 34.9237 87.9617 35.192 89.1223 35.192V33.192C88.2669 33.192 87.6648 32.9963 87.2373 32.6864L86.0633 34.3056ZM89.1223 35.192C90.3054 35.192 91.3686 34.9279 92.215 34.2985L91.0216 32.6935C90.62 32.9921 90.0192 33.192 89.1223 33.192V35.192ZM92.2053 34.3056C93.0393 33.701 93.6153 32.8512 93.959 31.8202L92.0616 31.1878C91.8293 31.8848 91.4774 32.363 91.0313 32.6864L92.2053 34.3056ZM93.9536 31.8359C94.3047 30.838 94.4663 29.688 94.4663 28.408H92.4663C92.4663 29.528 92.3239 30.442 92.067 31.1721L93.9536 31.8359ZM94.4663 28.408C94.4663 26.4925 94.1129 24.8587 93.2944 23.6113L91.6223 24.7087C92.1477 25.5093 92.4663 26.7075 92.4663 28.408H94.4663ZM93.2944 23.6113C92.3899 22.233 90.922 21.624 89.1463 21.624V23.624C90.4426 23.624 91.1828 24.0389 91.6223 24.7087L93.2944 23.6113ZM89.1463 21.624C87.9737 21.624 86.9183 21.8905 86.0633 22.5104L87.2373 24.1296C87.6623 23.8215 88.2709 23.624 89.1463 23.624V21.624ZM86.0633 22.5104C85.2338 23.1118 84.6514 23.9557 84.291 24.9801L86.1776 25.6439C86.4252 24.9403 86.7868 24.4562 87.2373 24.1296L86.0633 22.5104ZM84.291 24.9801C83.9399 25.978 83.7783 27.128 83.7783 28.408H85.7783C85.7783 27.288 85.9207 26.374 86.1776 25.6439L84.291 24.9801ZM111.128 21.304L110.438 22.0281L110.444 22.0337L110.45 22.0392L111.128 21.304ZM112.328 27.376L113.277 27.6922L113.279 27.6856L112.328 27.376ZM111.2 29.2L110.482 28.5035L110.482 28.5039L111.2 29.2ZM109.16 30.448L109.497 31.3893L109.497 31.3893L109.16 30.448ZM104.456 30.904V29.904H103.456V30.904H104.456ZM104.456 37V38H105.456V37H104.456ZM100.832 37H99.8319V38H100.832V37ZM100.832 19.864V18.864H99.8319V19.864H100.832ZM104.456 22.84V21.84H103.456V22.84H104.456ZM104.456 27.928H103.456V28.928H104.456V27.928ZM107.432 27.664L107.097 26.7216L107.097 26.7216L107.432 27.664ZM108.584 26.824L107.768 26.246L107.768 26.246L108.584 26.824ZM108.296 23.464L107.628 24.2086L107.636 24.2151L107.643 24.2214L108.296 23.464ZM106.304 20.864C108.399 20.864 109.699 21.3245 110.438 22.0281L111.818 20.5799C110.54 19.3635 108.624 18.864 106.304 18.864V20.864ZM110.45 22.0392C111.229 22.7573 111.664 23.7722 111.664 25.216H113.664C113.664 23.3318 113.075 21.7387 111.806 20.5688L110.45 22.0392ZM111.664 25.216C111.664 25.867 111.567 26.4823 111.377 27.0664L113.279 27.6856C113.537 26.8937 113.664 26.069 113.664 25.216H111.664ZM111.379 27.0598C111.206 27.5794 110.913 28.0596 110.482 28.5035L111.917 29.8965C112.543 29.2524 113.002 28.5166 113.277 27.6922L111.379 27.0598ZM110.482 28.5039C110.098 28.9002 109.558 29.2429 108.822 29.5067L109.497 31.3893C110.457 31.0451 111.278 30.5558 111.918 29.8961L110.482 28.5039ZM108.822 29.5067C108.116 29.7601 107.19 29.904 106.016 29.904V31.904C107.338 31.904 108.508 31.7439 109.497 31.3893L108.822 29.5067ZM106.016 29.904H104.456V31.904H106.016V29.904ZM103.456 30.904V37H105.456V30.904H103.456ZM104.456 36H100.832V38H104.456V36ZM101.832 37V19.864H99.8319V37H101.832ZM100.832 20.864H106.304V18.864H100.832V20.864ZM106.112 21.84H104.456V23.84H106.112V21.84ZM103.456 22.84V27.928H105.456V22.84H103.456ZM104.456 28.928H105.656V26.928H104.456V28.928ZM105.656 28.928C106.425 28.928 107.136 28.8302 107.766 28.6064L107.097 26.7216C106.736 26.8498 106.263 26.928 105.656 26.928V28.928ZM107.766 28.6064C108.433 28.37 108.995 27.9739 109.4 27.402L107.768 26.246C107.629 26.4421 107.423 26.606 107.097 26.7216L107.766 28.6064ZM109.4 27.402C109.822 26.8057 109.992 26.0908 109.992 25.336H107.992C107.992 25.7972 107.889 26.0743 107.768 26.246L109.4 27.402ZM109.992 25.336C109.992 24.3138 109.708 23.3614 108.949 22.7066L107.643 24.2214C107.811 24.3666 107.992 24.6622 107.992 25.336H109.992ZM108.963 22.7194C108.234 22.0655 107.212 21.84 106.112 21.84V23.84C106.996 23.84 107.43 24.0305 107.628 24.2086L108.963 22.7194ZM121.23 26.92L120.337 27.3696L121.227 29.138L122.122 27.3721L121.23 26.92ZM124.806 19.864V18.864H124.192L123.914 19.4119L124.806 19.864ZM128.718 19.864L129.597 20.3416L130.4 18.864H128.718V19.864ZM123.03 30.328L122.152 29.8504L122.03 30.0738V30.328H123.03ZM123.03 37V38H124.03V37H123.03ZM119.43 37H118.43V38H119.43V37ZM119.43 30.448H120.43V30.1963L120.311 29.9746L119.43 30.448ZM113.742 19.864V18.864H112.07L112.861 20.3374L113.742 19.864ZM117.678 19.864L118.571 19.4144L118.294 18.864H117.678V19.864ZM122.122 27.3721L125.698 20.3161L123.914 19.4119L120.338 26.4679L122.122 27.3721ZM124.806 20.864H128.718V18.864H124.806V20.864ZM127.84 19.3864L122.152 29.8504L123.909 30.8056L129.597 20.3416L127.84 19.3864ZM122.03 30.328V37H124.03V30.328H122.03ZM123.03 36H119.43V38H123.03V36ZM120.43 37V30.448H118.43V37H120.43ZM120.311 29.9746L114.623 19.3906L112.861 20.3374L118.549 30.9214L120.311 29.9746ZM113.742 20.864H117.678V18.864H113.742V20.864ZM116.785 20.3136L120.337 27.3696L122.123 26.4704L118.571 19.4144L116.785 20.3136Z"/>
</g>
<g filter="url(#filter1_d_1_222)">
<path d="M141.52 34.888L140.685 34.3374L140.685 34.3374L141.52 34.888ZM139.36 36.64L139.756 37.5584L139.763 37.5551L139.36 36.64ZM134.2 37.12L134.059 38.11L134.062 38.1105L134.2 37.12ZM132.568 36.784L132.27 37.7385L132.287 37.7439L132.305 37.7488L132.568 36.784ZM131.104 36.208H130.104V36.8357L130.669 37.1086L131.104 36.208ZM131.104 32.824L131.5 31.9058L130.104 31.3036V32.824H131.104ZM133.624 33.808L133.292 34.7513L133.302 34.755L133.313 34.7584L133.624 33.808ZM137.656 34L137.257 33.0829L137.25 33.0862L137.242 33.0896L137.656 34ZM138.448 33.352L137.608 32.8087L137.597 32.8266L137.586 32.845L138.448 33.352ZM138.256 31.312L137.53 31.9997L137.539 32.0096L137.549 32.0191L138.256 31.312ZM137.08 30.472L136.599 31.3488L136.61 31.3549L136.621 31.3606L137.08 30.472ZM135.376 29.608L134.943 30.5095L134.947 30.5113L135.376 29.608ZM134.08 28.936L133.574 29.7987L133.586 29.8053L133.597 29.8116L134.08 28.936ZM132.736 27.952L132.043 28.6728L132.057 28.6864L132.072 28.6994L132.736 27.952ZM131.704 26.512L130.804 26.9489L130.804 26.9489L131.704 26.512ZM131.992 21.88L131.154 21.3337L131.151 21.3383L131.992 21.88ZM134.008 20.2L133.608 19.2834L133.602 19.2862L134.008 20.2ZM139.648 19.936L139.396 20.9038L139.401 20.905L139.648 19.936ZM142.192 20.824L143.116 21.2075L143.492 20.3003L142.592 19.9075L142.192 20.824ZM141.016 23.656L140.638 24.5818L141.558 24.9575L141.94 24.0395L141.016 23.656ZM138.904 22.912L138.633 23.8744L138.633 23.8744L138.904 22.912ZM135.832 22.864L136.242 23.7759L136.242 23.7759L135.832 22.864ZM135.088 23.464L134.264 22.8975L134.252 22.9155L134.24 22.934L135.088 23.464ZM135.208 25.408L134.44 26.0482L134.449 26.059L134.458 26.0696L135.208 25.408ZM136.288 26.2L136.759 25.3176L136.759 25.3176L136.288 26.2ZM138.088 27.112L137.649 28.0105L137.661 28.0161L138.088 27.112ZM140.32 28.408L139.727 29.2131L139.737 29.2203L140.32 28.408ZM141.76 29.992L140.885 30.4757L140.885 30.4757L141.76 29.992ZM141.264 32.248C141.264 33.0844 141.061 33.7678 140.685 34.3374L142.355 35.4386C142.971 34.5042 143.264 33.4276 143.264 32.248H141.264ZM140.685 34.3374C140.31 34.9066 139.751 35.3749 138.957 35.7249L139.763 37.5551C140.857 37.0731 141.738 36.3734 142.355 35.4386L140.685 34.3374ZM138.964 35.7217C138.195 36.0532 137.202 36.24 135.952 36.24V38.24C137.39 38.24 138.669 38.0268 139.756 37.5583L138.964 35.7217ZM135.952 36.24C135.405 36.24 134.867 36.2031 134.338 36.1295L134.062 38.1105C134.685 38.1969 135.315 38.24 135.952 38.24V36.24ZM134.341 36.1301C133.821 36.0557 133.318 35.952 132.831 35.8192L132.305 37.7488C132.874 37.904 133.459 38.0243 134.059 38.1099L134.341 36.1301ZM132.866 35.8295C132.399 35.6835 131.957 35.5093 131.539 35.3074L130.669 37.1086C131.179 37.3547 131.713 37.5645 132.27 37.7385L132.866 35.8295ZM132.104 36.208V32.824H130.104V36.208H132.104ZM130.708 33.7422C131.546 34.1036 132.407 34.4399 133.292 34.7513L133.956 32.8647C133.113 32.5681 132.294 32.2484 131.5 31.9058L130.708 33.7422ZM133.313 34.7584C134.286 35.0769 135.263 35.24 136.24 35.24V33.24C135.489 33.24 134.722 33.1151 133.935 32.8576L133.313 34.7584ZM136.24 35.24C136.906 35.24 137.537 35.1524 138.07 34.9104L137.242 33.0896C137.071 33.1676 136.758 33.24 136.24 33.24V35.24ZM138.055 34.9171C138.564 34.6958 139.017 34.3574 139.31 33.859L137.586 32.845C137.559 32.8906 137.484 32.9842 137.257 33.0829L138.055 34.9171ZM139.288 33.8953C139.577 33.4474 139.712 32.9434 139.712 32.416H137.712C137.712 32.5926 137.671 32.7126 137.608 32.8087L139.288 33.8953ZM139.712 32.416C139.712 31.7202 139.456 31.0974 138.963 30.6049L137.549 32.0191C137.664 32.1346 137.712 32.2478 137.712 32.416H139.712ZM138.982 30.6243C138.596 30.2167 138.103 29.8748 137.539 29.5834L136.621 31.3606C137.049 31.5812 137.34 31.7993 137.53 31.9997L138.982 30.6243ZM137.561 29.5952C137.044 29.3119 136.458 29.0151 135.805 28.7047L134.947 30.5113C135.574 30.8089 136.124 31.0881 136.599 31.3488L137.561 29.5952ZM135.809 28.7065C135.429 28.524 135.014 28.309 134.563 28.0604L133.597 29.8116C134.074 30.075 134.523 30.308 134.943 30.5095L135.809 28.7065ZM134.586 28.0733C134.182 27.8368 133.787 27.5483 133.4 27.2046L132.072 28.6994C132.549 29.1237 133.05 29.4912 133.574 29.7987L134.586 28.0733ZM133.429 27.2312C133.105 26.9191 132.828 26.5374 132.604 26.0751L130.804 26.9489C131.124 27.6066 131.535 28.1849 132.043 28.6728L133.429 27.2312ZM132.604 26.0751C132.413 25.6819 132.296 25.1668 132.296 24.496H130.296C130.296 25.3932 130.451 26.2221 130.804 26.9489L132.604 26.0751ZM132.296 24.496C132.296 23.6261 132.491 22.951 132.833 22.4217L131.151 21.3383C130.565 22.249 130.296 23.3179 130.296 24.496H132.296ZM132.83 22.4263C133.196 21.8642 133.712 21.4257 134.414 21.1138L133.602 19.2862C132.576 19.7423 131.748 20.4238 131.154 21.3337L132.83 22.4263ZM134.408 21.1165C135.136 20.7988 136.026 20.624 137.104 20.624V18.624C135.814 18.624 134.64 18.8332 133.608 19.2835L134.408 21.1165ZM137.104 20.624C137.922 20.624 138.685 20.7189 139.396 20.9038L139.9 18.9682C139.011 18.7371 138.078 18.624 137.104 18.624V20.624ZM139.401 20.905C140.158 21.098 140.955 21.3752 141.792 21.7405L142.592 19.9075C141.669 19.5048 140.77 19.19 139.895 18.967L139.401 20.905ZM141.268 20.4405L140.092 23.2725L141.94 24.0395L143.116 21.2075L141.268 20.4405ZM141.394 22.7302C140.585 22.4 139.845 22.1383 139.175 21.9495L138.633 23.8744C139.211 24.0377 139.879 24.272 140.638 24.5818L141.394 22.7302ZM139.175 21.9496C138.462 21.7483 137.731 21.648 136.984 21.648V23.648C137.549 23.648 138.098 23.7237 138.633 23.8744L139.175 21.9496ZM136.984 21.648C136.432 21.648 135.901 21.7363 135.422 21.9521L136.242 23.7759C136.403 23.7037 136.64 23.648 136.984 23.648V21.648ZM135.422 21.9521C134.957 22.1612 134.557 22.4718 134.264 22.8975L135.912 24.0305C135.971 23.9442 136.067 23.8548 136.242 23.7759L135.422 21.9521ZM134.24 22.934C133.965 23.3738 133.848 23.8682 133.848 24.376H135.848C135.848 24.1798 135.891 24.0662 135.936 23.994L134.24 22.934ZM133.848 24.376C133.848 24.993 134.04 25.5679 134.44 26.0482L135.976 24.7678C135.896 24.6721 135.848 24.559 135.848 24.376H133.848ZM134.458 26.0696C134.806 26.4643 135.279 26.7954 135.817 27.0824L136.759 25.3176C136.337 25.0926 136.09 24.8957 135.958 24.7464L134.458 26.0696ZM135.817 27.0824C136.311 27.3458 136.923 27.6554 137.649 28.0104L138.527 26.2136C137.813 25.8646 137.225 25.5662 136.759 25.3176L135.817 27.0824ZM137.661 28.0161C138.498 28.4119 139.183 28.8124 139.727 29.2131L140.913 27.6029C140.241 27.1076 139.438 26.6441 138.515 26.2079L137.661 28.0161ZM139.737 29.2203C140.253 29.591 140.628 30.0107 140.885 30.4757L142.635 29.5083C142.22 28.7573 141.635 28.121 140.903 27.5957L139.737 29.2203ZM140.885 30.4757C141.119 30.8988 141.264 31.4734 141.264 32.248H143.264C143.264 31.2306 143.073 30.3012 142.635 29.5083L140.885 30.4757ZM159.419 37V38H160.419V37H159.419ZM155.795 37H154.795V38H155.795V37ZM155.795 29.608H156.795V28.608H155.795V29.608ZM149.003 29.608V28.608H148.003V29.608H149.003ZM149.003 37V38H150.003V37H149.003ZM145.379 37H144.379V38H145.379V37ZM145.379 19.864V18.864H144.379V19.864H145.379ZM149.003 19.864H150.003V18.864H149.003V19.864ZM149.003 26.584H148.003V27.584H149.003V26.584ZM155.795 26.584V27.584H156.795V26.584H155.795ZM155.795 19.864V18.864H154.795V19.864H155.795ZM159.419 19.864H160.419V18.864H159.419V19.864ZM159.419 36H155.795V38H159.419V36ZM156.795 37V29.608H154.795V37H156.795ZM155.795 28.608H149.003V30.608H155.795V28.608ZM148.003 29.608V37H150.003V29.608H148.003ZM149.003 36H145.379V38H149.003V36ZM146.379 37V19.864H144.379V37H146.379ZM145.379 20.864H149.003V18.864H145.379V20.864ZM148.003 19.864V26.584H150.003V19.864H148.003ZM149.003 27.584H155.795V25.584H149.003V27.584ZM156.795 26.584V19.864H154.795V26.584H156.795ZM155.795 20.864H159.419V18.864H155.795V20.864ZM158.419 19.864V37H160.419V19.864H158.419ZM178.778 32.032L177.823 31.7369L177.82 31.746L178.778 32.032ZM177.29 34.816L176.531 34.1652L176.523 34.1743L177.29 34.816ZM174.746 36.616L174.375 35.6875L174.37 35.6895L174.746 36.616ZM167.474 36.616L167.086 37.5374L167.094 37.541L167.103 37.5445L167.474 36.616ZM164.93 34.816L164.163 35.4577L164.17 35.4662L164.178 35.4745L164.93 34.816ZM163.442 32.008L162.483 32.2902L162.487 32.3031L163.442 32.008ZM163.826 23.752L162.915 23.3407L162.911 23.35L163.826 23.752ZM166.514 20.704L167.029 21.5615L167.032 21.5595L166.514 20.704ZM175.73 20.704L175.207 21.5565L175.216 21.5615L175.73 20.704ZM178.394 23.776L177.477 24.1739L177.48 24.1806L177.483 24.1873L178.394 23.776ZM168.65 33.496L169.237 32.6864L169.237 32.6864L168.65 33.496ZM173.618 33.496L173.031 32.6863L173.022 32.6935L173.618 33.496ZM175.01 31.504L174.067 31.1721L174.064 31.1799L174.062 31.1878L175.01 31.504ZM174.458 24.16L173.622 24.7087L173.622 24.7087L174.458 24.16ZM168.65 23.32L168.063 22.5104L168.063 22.5104L168.65 23.32ZM178.282 28.408C178.282 29.6522 178.125 30.7588 177.823 31.7369L179.734 32.3271C180.104 31.1291 180.282 29.8198 180.282 28.408H178.282ZM177.82 31.746C177.537 32.6951 177.105 33.4961 176.531 34.1652L178.05 35.4668C178.82 34.5679 179.38 33.5129 179.737 32.318L177.82 31.746ZM176.523 34.1743C175.983 34.8196 175.276 35.3269 174.375 35.6875L175.118 37.5445C176.296 37.0731 177.285 36.3804 178.057 35.4577L176.523 34.1743ZM174.37 35.6895C173.492 36.0462 172.418 36.24 171.122 36.24V38.24C172.611 38.24 173.953 38.0178 175.123 37.5425L174.37 35.6895ZM171.122 36.24C169.828 36.24 168.743 36.0463 167.846 35.6875L167.103 37.5445C168.286 38.0177 169.633 38.24 171.122 38.24V36.24ZM167.863 35.6946C166.966 35.3162 166.246 34.8015 165.683 34.1575L164.178 35.4745C164.958 36.3665 165.935 37.0518 167.086 37.5374L167.863 35.6946ZM165.697 34.1743C165.136 33.5032 164.699 32.6885 164.398 31.7129L162.487 32.3031C162.858 33.5035 163.413 34.5608 164.163 35.4577L165.697 34.1743ZM164.402 31.7258C164.113 30.7435 163.962 29.6324 163.962 28.384H161.962C161.962 29.7916 162.132 31.0965 162.483 32.2902L164.402 31.7258ZM163.962 28.384C163.962 26.7142 164.233 25.3128 164.742 24.154L162.911 23.35C162.267 24.8152 161.962 26.5018 161.962 28.384H163.962ZM164.738 24.1633C165.249 23.0313 166.009 22.1735 167.029 21.5615L166 19.8465C164.62 20.6745 163.588 21.8487 162.915 23.3407L164.738 24.1633ZM167.032 21.5595C168.05 20.9435 169.4 20.6 171.146 20.6V18.6C169.148 18.6 167.411 18.9925 165.997 19.8485L167.032 21.5595ZM171.146 20.6C172.875 20.6 174.207 20.9431 175.207 21.5564L176.253 19.8516C174.853 18.9929 173.13 18.6 171.146 18.6V20.6ZM175.216 21.5615C176.23 22.1702 176.981 23.0304 177.477 24.1739L179.312 23.3781C178.656 21.8656 177.63 20.6778 176.245 19.8465L175.216 21.5615ZM177.483 24.1873C178.005 25.3435 178.282 26.7415 178.282 28.408H180.282C180.282 26.5225 179.968 24.8325 179.306 23.3647L177.483 24.1873ZM165.778 28.408C165.778 29.688 165.94 30.838 166.291 31.8359L168.178 31.1721C167.921 30.442 167.778 29.528 167.778 28.408H165.778ZM166.291 31.8359C166.651 32.8603 167.234 33.7042 168.063 34.3056L169.237 32.6864C168.787 32.3598 168.425 31.8757 168.178 31.1721L166.291 31.8359ZM168.063 34.3056C168.916 34.9237 169.962 35.192 171.122 35.192V33.192C170.267 33.192 169.665 32.9963 169.237 32.6864L168.063 34.3056ZM171.122 35.192C172.305 35.192 173.369 34.9279 174.215 34.2985L173.022 32.6935C172.62 32.9921 172.019 33.192 171.122 33.192V35.192ZM174.205 34.3056C175.039 33.701 175.615 32.8512 175.959 31.8202L174.062 31.1878C173.829 31.8848 173.477 32.363 173.031 32.6864L174.205 34.3056ZM175.954 31.8359C176.305 30.838 176.466 29.688 176.466 28.408H174.466C174.466 29.528 174.324 30.442 174.067 31.1721L175.954 31.8359ZM176.466 28.408C176.466 26.4925 176.113 24.8587 175.294 23.6113L173.622 24.7087C174.148 25.5093 174.466 26.7075 174.466 28.408H176.466ZM175.294 23.6113C174.39 22.233 172.922 21.624 171.146 21.624V23.624C172.443 23.624 173.183 24.0389 173.622 24.7087L175.294 23.6113ZM171.146 21.624C169.974 21.624 168.918 21.8905 168.063 22.5104L169.237 24.1296C169.662 23.8215 170.271 23.624 171.146 23.624V21.624ZM168.063 22.5104C167.234 23.1118 166.651 23.9557 166.291 24.9801L168.178 25.6439C168.425 24.9403 168.787 24.4562 169.237 24.1296L168.063 22.5104ZM166.291 24.9801C165.94 25.978 165.778 27.128 165.778 28.408H167.778C167.778 27.288 167.921 26.374 168.178 25.6439L166.291 24.9801ZM193.128 21.304L192.438 22.0281L192.444 22.0337L192.45 22.0392L193.128 21.304ZM194.328 27.376L195.277 27.6922L195.279 27.6856L194.328 27.376ZM193.2 29.2L192.482 28.5035L192.482 28.5039L193.2 29.2ZM191.16 30.448L191.497 31.3893L191.497 31.3893L191.16 30.448ZM186.456 30.904V29.904H185.456V30.904H186.456ZM186.456 37V38H187.456V37H186.456ZM182.832 37H181.832V38H182.832V37ZM182.832 19.864V18.864H181.832V19.864H182.832ZM186.456 22.84V21.84H185.456V22.84H186.456ZM186.456 27.928H185.456V28.928H186.456V27.928ZM189.432 27.664L189.097 26.7216L189.097 26.7216L189.432 27.664ZM190.584 26.824L189.768 26.246L189.768 26.246L190.584 26.824ZM190.296 23.464L189.628 24.2086L189.636 24.2151L189.643 24.2214L190.296 23.464ZM188.304 20.864C190.399 20.864 191.699 21.3245 192.438 22.0281L193.818 20.5799C192.54 19.3635 190.624 18.864 188.304 18.864V20.864ZM192.45 22.0392C193.229 22.7573 193.664 23.7722 193.664 25.216H195.664C195.664 23.3318 195.075 21.7387 193.806 20.5688L192.45 22.0392ZM193.664 25.216C193.664 25.867 193.567 26.4823 193.377 27.0664L195.279 27.6856C195.537 26.8937 195.664 26.069 195.664 25.216H193.664ZM193.379 27.0598C193.206 27.5794 192.913 28.0596 192.482 28.5035L193.917 29.8965C194.543 29.2524 195.002 28.5166 195.277 27.6922L193.379 27.0598ZM192.482 28.5039C192.098 28.9002 191.558 29.2429 190.822 29.5067L191.497 31.3893C192.457 31.0451 193.278 30.5558 193.918 29.8961L192.482 28.5039ZM190.822 29.5067C190.116 29.7601 189.19 29.904 188.016 29.904V31.904C189.338 31.904 190.508 31.7439 191.497 31.3893L190.822 29.5067ZM188.016 29.904H186.456V31.904H188.016V29.904ZM185.456 30.904V37H187.456V30.904H185.456ZM186.456 36H182.832V38H186.456V36ZM183.832 37V19.864H181.832V37H183.832ZM182.832 20.864H188.304V18.864H182.832V20.864ZM188.112 21.84H186.456V23.84H188.112V21.84ZM185.456 22.84V27.928H187.456V22.84H185.456ZM186.456 28.928H187.656V26.928H186.456V28.928ZM187.656 28.928C188.425 28.928 189.136 28.8302 189.766 28.6064L189.097 26.7216C188.736 26.8498 188.263 26.928 187.656 26.928V28.928ZM189.766 28.6064C190.433 28.37 190.995 27.9739 191.4 27.402L189.768 26.246C189.629 26.4421 189.423 26.606 189.097 26.7216L189.766 28.6064ZM191.4 27.402C191.822 26.8057 191.992 26.0908 191.992 25.336H189.992C189.992 25.7972 189.889 26.0743 189.768 26.246L191.4 27.402ZM191.992 25.336C191.992 24.3138 191.708 23.3614 190.949 22.7066L189.643 24.2214C189.811 24.3666 189.992 24.6622 189.992 25.336H191.992ZM190.963 22.7194C190.234 22.0655 189.212 21.84 188.112 21.84V23.84C188.996 23.84 189.43 24.0305 189.628 24.2086L190.963 22.7194Z"/>
</g>
<g filter="url(#filter2_d_1_222)">
<path d="M29.7803 41C29.7759 41 29.7714 40.9998 29.767 40.9998H6.63508C6.4545 40.9998 6.28239 40.933 6.16214 40.8162C6.04169 40.6992 5.9841 40.5433 6.00379 40.3873L9.95558 9.23777C9.99093 8.95792 10.263 8.74633 10.5869 8.74633H16.1315V6.55373C16.1315 4.04283 18.482 2 21.371 2C21.8528 2 22.3199 2.05685 22.7634 2.1632C23.2069 2.05685 23.6739 2 24.1557 2C27.0448 2 29.3953 4.04283 29.3953 6.55373V8.74633H35.2902C35.62 8.74633 35.8946 8.96546 35.923 9.25101L38.9975 40.3989C39.0125 40.5459 38.96 40.6977 38.8379 40.8162C38.7259 40.9247 38.5758 40.9858 38.4208 40.9976C38.4208 40.9978 38.4198 40.9978 38.4189 40.9978C38.4181 40.9976 38.4176 40.9976 38.4168 40.998C38.4162 40.998 38.4155 40.998 38.4149 40.998C38.4143 40.9982 38.4138 40.998 38.4128 40.9982C38.4126 40.9983 38.4117 40.9982 38.4109 40.9983C38.41 40.9982 38.4092 40.998 38.4088 40.9985C38.4079 40.9985 38.4079 40.9985 38.4066 40.9985C38.406 40.9985 38.406 40.9989 38.4045 40.9987C38.4037 40.9985 38.4035 40.9985 38.4024 40.9987C38.4016 40.9989 38.4009 40.9987 38.4003 40.9989C38.399 40.9987 38.3984 40.9991 38.3982 40.9991C38.3973 40.9991 38.3967 40.9991 38.3958 40.9991C38.395 40.9993 38.3944 40.9993 38.3935 40.9993C38.3933 40.9993 38.3933 40.9993 38.3931 40.9993C38.3823 40.9996 38.3715 40.9998 38.3609 40.9998H29.7926C29.789 40.9998 29.7848 41 29.7803 41ZM30.8162 39.8959H36.7048L32.6592 36.7445L30.8162 39.8959ZM7.34406 39.8959H29.1916L30.9546 19.4554C30.9551 19.4482 30.9557 19.4413 30.9565 19.4341L31.783 9.85027H26.6104V11.6594C26.6104 11.9643 26.326 12.2114 25.9753 12.2114C25.6245 12.2114 25.3402 11.9643 25.3402 11.6594V9.85027H17.4015V11.6594C17.4015 11.9643 17.1171 12.2114 16.7664 12.2114C16.4156 12.2114 16.1313 11.9643 16.1313 11.6594V9.85027H11.1557L7.34406 39.8959ZM33.0896 35.5972L37.5952 39.1068L34.7072 9.85027H33.0568L32.2248 19.495L33.0896 35.5972ZM31.4413 28.5809L30.6513 37.7417L31.8253 35.734L31.4413 28.5809ZM26.6106 8.74633H28.1251V6.55373C28.1251 4.85993 26.713 3.44726 24.8583 3.15803C25.9329 3.9926 26.6104 5.20564 26.6104 6.55373V8.74633H26.6106ZM20.1866 8.74633H25.3404V6.55373C25.3404 5.07722 24.2673 3.81413 22.7634 3.32288C21.2595 3.81413 20.1866 5.07703 20.1866 6.55373V8.74633ZM17.4017 8.74633H18.9164V6.55373C18.9164 5.20564 19.5938 3.9926 20.6684 3.15803C18.8137 3.44726 17.4017 4.85993 17.4017 6.55373V8.74633Z"/>
</g>
<defs>
<filter id="filter0_d_1_222" x="43.104" y="17.6" width="91.6142" height="29.64" filterUnits="userSpaceOnUse" color-interpolation-filters="sRGB">
<feFlood flood-opacity="0" result="BackgroundImageFix"/>
<feColorMatrix in="SourceAlpha" type="matrix" values="0 0 0 0 0 0 0 0 0 0 0 0 0 0 0 0 0 0 127 0" result="hardAlpha"/>
<feOffset dy="4"/>
<feGaussianBlur stdDeviation="3"/>
<feComposite in2="hardAlpha" operator="out"/>
<feColorMatrix type="matrix" values="0 0 0 0 0 0 0 0 0 0 0 0 0 0 0 0 0 0 0.25 0"/>
<feBlend mode="normal" in2="BackgroundImageFix" result="effect1_dropShadow_1_222"/>
<feBlend mode="normal" in="SourceGraphic" in2="effect1_dropShadow_1_222" result="shape"/>
</filter>
<filter id="filter1_d_1_222" x="127.104" y="19.6" width="71.5599" height="25.64" filterUnits="userSpaceOnUse" color-interpolation-filters="sRGB">
<feFlood flood-opacity="0" result="BackgroundImageFix"/>
<feColorMatrix in="SourceAlpha" type="matrix" values="0 0 0 0 0 0 0 0 0 0 0 0 0 0 0 0 0 0 127 0" result="hardAlpha"/>
<feOffset dy="4"/>
<feGaussianBlur stdDeviation="2"/>
<feComposite in2="hardAlpha" operator="out"/>
<feColorMatrix type="matrix" values="0 0 0 0 0 0 0 0 0 0 0 0 0 0 0 0 0 0 0.15 0"/>
<feBlend mode="normal" in2="BackgroundImageFix" result="effect1_dropShadow_1_222"/>
<feBlend mode="normal" in="SourceGraphic" in2="effect1_dropShadow_1_222" result="shape"/>
</filter>
<filter id="filter2_d_1_222" x="0" y="0" width="45" height="51" filterUnits="userSpaceOnUse" color-interpolation-filters="sRGB">
<feFlood flood-opacity="0" result="BackgroundImageFix"/>
<feColorMatrix in="SourceAlpha" type="matrix" values="0 0 0 0 0 0 0 0 0 0 0 0 0 0 0 0 0 0 127 0" result="hardAlpha"/>
<feOffset dy="4"/>
<feGaussianBlur stdDeviation="3"/>
<feComposite in2="hardAlpha" operator="out"/>
<feColorMatrix type="matrix" values="0 0 0 0 0 0 0 0 0 0 0 0 0 0 0 0 0 0 0.1 0"/>
<feBlend mode="normal" in2="BackgroundImageFix" result="effect1_dropShadow_1_222"/>
<feBlend mode="normal" in="SourceGraphic" in2="effect1_dropShadow_1_222" result="shape"/>
</filter>
</defs>
</svg>
