<svg width="190" height="42" viewBox="0 0 190 42" fill="none" xmlns="http://www.w3.org/2000/svg">
<path d="M54.264 30.248C54.264 31.256 54.016 32.136 53.52 32.888C53.024 33.64 52.304 34.224 51.36 34.64C50.432 35.04 49.296 35.24 47.952 35.24C47.36 35.24 46.776 35.2 46.2 35.12C45.64 35.04 45.096 34.928 44.568 34.784C44.056 34.624 43.568 34.432 43.104 34.208V30.824C43.92 31.176 44.76 31.504 45.624 31.808C46.504 32.096 47.376 32.24 48.24 32.24C48.832 32.24 49.304 32.16 49.656 32C50.024 31.84 50.288 31.624 50.448 31.352C50.624 31.08 50.712 30.768 50.712 30.416C50.712 29.984 50.56 29.616 50.256 29.312C49.968 29.008 49.576 28.728 49.08 28.472C48.584 28.2 48.016 27.912 47.376 27.608C46.976 27.416 46.544 27.192 46.08 26.936C45.616 26.664 45.168 26.336 44.736 25.952C44.32 25.552 43.976 25.072 43.704 24.512C43.432 23.952 43.296 23.28 43.296 22.496C43.296 21.472 43.528 20.6 43.992 19.88C44.472 19.144 45.144 18.584 46.008 18.2C46.888 17.816 47.92 17.624 49.104 17.624C50 17.624 50.848 17.728 51.648 17.936C52.464 18.144 53.312 18.44 54.192 18.824L53.016 21.656C52.232 21.336 51.528 21.088 50.904 20.912C50.28 20.736 49.64 20.648 48.984 20.648C48.536 20.648 48.152 20.72 47.832 20.864C47.512 21.008 47.264 21.208 47.088 21.464C46.928 21.72 46.848 22.024 46.848 22.376C46.848 22.776 46.968 23.12 47.208 23.408C47.448 23.68 47.808 23.944 48.288 24.2C48.768 24.456 49.368 24.76 50.088 25.112C50.968 25.528 51.712 25.96 52.32 26.408C52.944 26.856 53.424 27.384 53.76 27.992C54.096 28.6 54.264 29.352 54.264 30.248ZM71.4188 35H67.7948V27.608H61.0028V35H57.3788V17.864H61.0028V24.584H67.7948V17.864H71.4188V35ZM91.2823 26.408C91.2823 27.736 91.1143 28.944 90.7783 30.032C90.4583 31.104 89.9623 32.032 89.2903 32.816C88.6343 33.6 87.7863 34.2 86.7463 34.616C85.7223 35.032 84.5143 35.24 83.1223 35.24C81.7303 35.24 80.5143 35.032 79.4743 34.616C78.4503 34.184 77.6023 33.584 76.9303 32.816C76.2743 32.032 75.7783 31.096 75.4423 30.008C75.1223 28.92 74.9623 27.712 74.9623 26.384C74.9623 24.608 75.2503 23.064 75.8263 21.752C76.4183 20.44 77.3143 19.424 78.5143 18.704C79.7303 17.968 81.2743 17.6 83.1463 17.6C85.0023 17.6 86.5303 17.968 87.7303 18.704C88.9303 19.424 89.8183 20.448 90.3943 21.776C90.9863 23.088 91.2823 24.632 91.2823 26.408ZM78.7783 26.408C78.7783 27.608 78.9303 28.64 79.2343 29.504C79.5383 30.368 80.0103 31.032 80.6503 31.496C81.2903 31.96 82.1143 32.192 83.1223 32.192C84.1623 32.192 84.9943 31.96 85.6183 31.496C86.2583 31.032 86.7223 30.368 87.0103 29.504C87.3143 28.64 87.4663 27.608 87.4663 26.408C87.4663 24.6 87.1303 23.184 86.4583 22.16C85.7863 21.136 84.6823 20.624 83.1463 20.624C82.1223 20.624 81.2903 20.856 80.6503 21.32C80.0103 21.784 79.5383 22.448 79.2343 23.312C78.9303 24.176 78.7783 25.208 78.7783 26.408ZM100.304 17.864C102.512 17.864 104.12 18.344 105.128 19.304C106.152 20.248 106.664 21.552 106.664 23.216C106.664 23.968 106.552 24.688 106.328 25.376C106.104 26.048 105.728 26.656 105.2 27.2C104.688 27.728 104.008 28.144 103.16 28.448C102.312 28.752 101.264 28.904 100.016 28.904H98.4559V35H94.8319V17.864H100.304ZM100.112 20.84H98.4559V25.928H99.6559C100.344 25.928 100.936 25.84 101.432 25.664C101.928 25.488 102.312 25.208 102.584 24.824C102.856 24.44 102.992 23.944 102.992 23.336C102.992 22.488 102.76 21.864 102.296 21.464C101.832 21.048 101.104 20.84 100.112 20.84ZM115.23 24.92L118.806 17.864H122.718L117.03 28.328V35H113.43V28.448L107.742 17.864H111.678L115.23 24.92Z" fill="#1DBB2D"/>
<path d="M53.52 32.888L52.6852 32.3374L52.6852 32.3374L53.52 32.888ZM51.36 34.64L51.7558 35.5584L51.7633 35.5551L51.36 34.64ZM46.2 35.12L46.0586 36.11L46.0624 36.1105L46.2 35.12ZM44.568 34.784L44.2697 35.7385L44.2872 35.7439L44.3049 35.7488L44.568 34.784ZM43.104 34.208H42.104V34.8357L42.6693 35.1086L43.104 34.208ZM43.104 30.824L43.5001 29.9058L42.104 29.3036V30.824H43.104ZM45.624 31.808L45.2921 32.7513L45.3025 32.755L45.313 32.7584L45.624 31.808ZM49.656 32L49.2573 31.0829L49.2497 31.0862L49.2422 31.0896L49.656 32ZM50.448 31.352L49.6084 30.8087L49.5969 30.8266L49.5861 30.845L50.448 31.352ZM50.256 29.312L49.53 29.9997L49.5393 30.0096L49.5489 30.0191L50.256 29.312ZM49.08 28.472L48.5992 29.3488L48.6102 29.3549L48.6214 29.3606L49.08 28.472ZM47.376 27.608L46.9433 28.5095L46.9469 28.5113L47.376 27.608ZM46.08 26.936L45.5743 27.7987L45.5855 27.8053L45.5969 27.8116L46.08 26.936ZM44.736 25.952L44.0429 26.6728L44.057 26.6864L44.0716 26.6994L44.736 25.952ZM43.704 24.512L42.8045 24.9489L42.8045 24.9489L43.704 24.512ZM43.992 19.88L43.1544 19.3337L43.1514 19.3383L43.992 19.88ZM46.008 18.2L45.608 17.2834L45.6019 17.2862L46.008 18.2ZM51.648 17.936L51.3964 18.9038L51.401 18.905L51.648 17.936ZM54.192 18.824L55.1155 19.2075L55.4923 18.3003L54.5919 17.9075L54.192 18.824ZM53.016 21.656L52.6381 22.5818L53.5584 22.9575L53.9395 22.0395L53.016 21.656ZM50.904 20.912L50.6325 21.8744L50.6325 21.8744L50.904 20.912ZM47.832 20.864L48.2424 21.7759L48.2424 21.7759L47.832 20.864ZM47.088 21.464L46.264 20.8975L46.2516 20.9155L46.24 20.934L47.088 21.464ZM47.208 23.408L46.4398 24.0482L46.4488 24.059L46.4582 24.0696L47.208 23.408ZM48.288 24.2L48.7586 23.3176L48.7586 23.3176L48.288 24.2ZM50.088 25.112L49.6488 26.0105L49.6606 26.0161L50.088 25.112ZM52.32 26.408L51.7268 27.2131L51.7368 27.2203L52.32 26.408ZM53.76 27.992L52.8848 28.4757L52.8848 28.4757L53.76 27.992ZM53.264 30.248C53.264 31.0844 53.0609 31.7678 52.6852 32.3374L54.3548 33.4386C54.9711 32.5042 55.264 31.4276 55.264 30.248H53.264ZM52.6852 32.3374C52.3098 32.9066 51.7511 33.3749 50.9567 33.7249L51.7633 35.5551C52.8569 35.0731 53.7382 34.3734 54.3548 33.4386L52.6852 32.3374ZM50.9642 33.7217C50.1951 34.0532 49.2025 34.24 47.952 34.24V36.24C49.3895 36.24 50.6689 36.0268 51.7558 35.5583L50.9642 33.7217ZM47.952 34.24C47.4052 34.24 46.8672 34.2031 46.3376 34.1295L46.0624 36.1105C46.6848 36.1969 47.3148 36.24 47.952 36.24V34.24ZM46.3414 34.1301C45.8211 34.0557 45.3178 33.952 44.8311 33.8192L44.3049 35.7488C44.8742 35.904 45.4589 36.0243 46.0586 36.1099L46.3414 34.1301ZM44.8663 33.8295C44.3991 33.6835 43.9569 33.5093 43.5387 33.3074L42.6693 35.1086C43.1791 35.3547 43.7129 35.5645 44.2697 35.7385L44.8663 33.8295ZM44.104 34.208V30.824H42.104V34.208H44.104ZM42.7079 31.7422C43.5456 32.1036 44.4071 32.4399 45.2921 32.7513L45.9559 30.8647C45.1129 30.5681 44.2944 30.2484 43.5001 29.9058L42.7079 31.7422ZM45.313 32.7584C46.2862 33.0769 47.263 33.24 48.24 33.24V31.24C47.489 31.24 46.7218 31.1151 45.935 30.8576L45.313 32.7584ZM48.24 33.24C48.9063 33.24 49.5374 33.1524 50.0698 32.9104L49.2422 31.0896C49.0706 31.1676 48.7577 31.24 48.24 31.24V33.24ZM50.0547 32.9171C50.5636 32.6958 51.0168 32.3574 51.3099 31.859L49.5861 30.845C49.5592 30.8906 49.4844 30.9842 49.2573 31.0829L50.0547 32.9171ZM51.2876 31.8953C51.5773 31.4474 51.712 30.9434 51.712 30.416H49.712C49.712 30.5926 49.6707 30.7126 49.6084 30.8087L51.2876 31.8953ZM51.712 30.416C51.712 29.7202 51.4557 29.0974 50.9631 28.6049L49.5489 30.0191C49.6643 30.1346 49.712 30.2478 49.712 30.416H51.712ZM50.982 28.6243C50.5959 28.2167 50.1032 27.8748 49.5386 27.5834L48.6214 29.3606C49.0488 29.5812 49.3401 29.7993 49.53 29.9997L50.982 28.6243ZM49.5608 27.5952C49.0442 27.3119 48.4584 27.0151 47.8051 26.7047L46.9469 28.5113C47.5736 28.8089 48.1238 29.0881 48.5992 29.3488L49.5608 27.5952ZM47.8087 26.7065C47.4286 26.524 47.0136 26.309 46.5631 26.0604L45.5969 27.8116C46.0744 28.075 46.5234 28.308 46.9433 28.5095L47.8087 26.7065ZM46.5857 26.0733C46.1823 25.8368 45.787 25.5483 45.4004 25.2046L44.0716 26.6994C44.549 27.1237 45.0497 27.4912 45.5743 27.7987L46.5857 26.0733ZM45.4291 25.2312C45.1046 24.9191 44.8281 24.5374 44.6035 24.0751L42.8045 24.9489C43.1239 25.6066 43.5354 26.1849 44.0429 26.6728L45.4291 25.2312ZM44.6035 24.0751C44.4125 23.6819 44.296 23.1668 44.296 22.496H42.296C42.296 23.3932 42.4515 24.2221 42.8045 24.9489L44.6035 24.0751ZM44.296 22.496C44.296 21.6261 44.4915 20.951 44.8326 20.4217L43.1514 19.3383C42.5645 20.249 42.296 21.3179 42.296 22.496H44.296ZM44.8296 20.4263C45.1962 19.8642 45.7124 19.4257 46.4141 19.1138L45.6019 17.2862C44.5756 17.7423 43.7478 18.4238 43.1544 19.3337L44.8296 20.4263ZM46.4079 19.1165C47.136 18.7988 48.0264 18.624 49.104 18.624V16.624C47.8136 16.624 46.64 16.8332 45.6081 17.2835L46.4079 19.1165ZM49.104 18.624C49.9222 18.624 50.6851 18.7189 51.3964 18.9038L51.8996 16.9682C51.0109 16.7371 50.0778 16.624 49.104 16.624V18.624ZM51.401 18.905C52.158 19.098 52.9548 19.3752 53.7921 19.7405L54.5919 17.9075C53.6692 17.5048 52.77 17.19 51.895 16.967L51.401 18.905ZM53.2685 18.4405L52.0925 21.2725L53.9395 22.0395L55.1155 19.2075L53.2685 18.4405ZM53.3939 20.7302C52.585 20.4 51.8446 20.1383 51.1755 19.9495L50.6325 21.8744C51.2114 22.0377 51.879 22.272 52.6381 22.5818L53.3939 20.7302ZM51.1755 19.9496C50.4621 19.7483 49.7307 19.648 48.984 19.648V21.648C49.5493 21.648 50.0979 21.7237 50.6325 21.8744L51.1755 19.9496ZM48.984 19.648C48.4322 19.648 47.9011 19.7363 47.4216 19.9521L48.2424 21.7759C48.4029 21.7037 48.6398 21.648 48.984 21.648V19.648ZM47.4216 19.9521C46.9569 20.1612 46.5566 20.4718 46.264 20.8975L47.912 22.0305C47.9714 21.9442 48.0671 21.8548 48.2424 21.7759L47.4216 19.9521ZM46.24 20.934C45.9651 21.3738 45.848 21.8682 45.848 22.376H47.848C47.848 22.1798 47.8909 22.0662 47.936 21.994L46.24 20.934ZM45.848 22.376C45.848 22.993 46.0395 23.5679 46.4398 24.0482L47.9762 22.7678C47.8965 22.6721 47.848 22.559 47.848 22.376H45.848ZM46.4582 24.0696C46.8065 24.4643 47.2794 24.7954 47.8174 25.0824L48.7586 23.3176C48.3366 23.0926 48.0896 22.8957 47.9578 22.7464L46.4582 24.0696ZM47.8174 25.0824C48.3114 25.3458 48.9227 25.6554 49.6488 26.0104L50.5272 24.2136C49.8133 23.8646 49.2246 23.5662 48.7586 23.3176L47.8174 25.0824ZM49.6606 26.0161C50.498 26.4119 51.1831 26.8124 51.7268 27.2131L52.9132 25.6029C52.2409 25.1076 51.438 24.6441 50.5154 24.2079L49.6606 26.0161ZM51.7368 27.2203C52.2532 27.591 52.6278 28.0107 52.8848 28.4757L54.6352 27.5083C54.2202 26.7573 53.6348 26.121 52.9032 25.5957L51.7368 27.2203ZM52.8848 28.4757C53.1186 28.8988 53.264 29.4734 53.264 30.248H55.264C55.264 29.2306 55.0734 28.3012 54.6352 27.5083L52.8848 28.4757ZM71.4188 35V36H72.4188V35H71.4188ZM67.7948 35H66.7948V36H67.7948V35ZM67.7948 27.608H68.7948V26.608H67.7948V27.608ZM61.0028 27.608V26.608H60.0028V27.608H61.0028ZM61.0028 35V36H62.0028V35H61.0028ZM57.3788 35H56.3788V36H57.3788V35ZM57.3788 17.864V16.864H56.3788V17.864H57.3788ZM61.0028 17.864H62.0028V16.864H61.0028V17.864ZM61.0028 24.584H60.0028V25.584H61.0028V24.584ZM67.7948 24.584V25.584H68.7948V24.584H67.7948ZM67.7948 17.864V16.864H66.7948V17.864H67.7948ZM71.4188 17.864H72.4188V16.864H71.4188V17.864ZM71.4188 34H67.7948V36H71.4188V34ZM68.7948 35V27.608H66.7948V35H68.7948ZM67.7948 26.608H61.0028V28.608H67.7948V26.608ZM60.0028 27.608V35H62.0028V27.608H60.0028ZM61.0028 34H57.3788V36H61.0028V34ZM58.3788 35V17.864H56.3788V35H58.3788ZM57.3788 18.864H61.0028V16.864H57.3788V18.864ZM60.0028 17.864V24.584H62.0028V17.864H60.0028ZM61.0028 25.584H67.7948V23.584H61.0028V25.584ZM68.7948 24.584V17.864H66.7948V24.584H68.7948ZM67.7948 18.864H71.4188V16.864H67.7948V18.864ZM70.4188 17.864V35H72.4188V17.864H70.4188ZM90.7783 30.032L89.8228 29.7369L89.8201 29.746L90.7783 30.032ZM89.2903 32.816L88.531 32.1652L88.5234 32.1743L89.2903 32.816ZM86.7463 34.616L86.3749 33.6875L86.3699 33.6895L86.7463 34.616ZM79.4743 34.616L79.0856 35.5374L79.0942 35.541L79.1029 35.5445L79.4743 34.616ZM76.9303 32.816L76.1634 33.4577L76.1705 33.4662L76.1777 33.4745L76.9303 32.816ZM75.4423 30.008L74.4829 30.2902L74.4868 30.3031L75.4423 30.008ZM75.8263 21.752L74.9148 21.3407L74.9107 21.35L75.8263 21.752ZM78.5143 18.704L79.0288 19.5615L79.0321 19.5595L78.5143 18.704ZM87.7303 18.704L87.2075 19.5565L87.2158 19.5615L87.7303 18.704ZM90.3943 21.776L89.4769 22.1739L89.4798 22.1806L89.4828 22.1873L90.3943 21.776ZM80.6503 31.496L81.2373 30.6864L81.2373 30.6864L80.6503 31.496ZM85.6183 31.496L85.0313 30.6863L85.0216 30.6935L85.6183 31.496ZM87.0103 29.504L86.067 29.1721L86.0642 29.1799L86.0616 29.1878L87.0103 29.504ZM86.4583 22.16L85.6223 22.7087L85.6223 22.7087L86.4583 22.16ZM80.6503 21.32L80.0633 20.5104L80.0633 20.5104L80.6503 21.32ZM90.2823 26.408C90.2823 27.6522 90.1249 28.7588 89.8228 29.7369L91.7338 30.3271C92.1037 29.1291 92.2823 27.8198 92.2823 26.408H90.2823ZM89.8201 29.746C89.5368 30.6951 89.1045 31.4961 88.5311 32.1652L90.0496 33.4668C90.8201 32.5679 91.3799 31.5129 91.7365 30.318L89.8201 29.746ZM88.5234 32.1743C87.9834 32.8196 87.2764 33.3269 86.3749 33.6875L87.1177 35.5445C88.2962 35.0731 89.2852 34.3804 90.0572 33.4577L88.5234 32.1743ZM86.3699 33.6895C85.4921 34.0462 84.4175 34.24 83.1223 34.24V36.24C84.6111 36.24 85.9525 36.0178 87.1227 35.5425L86.3699 33.6895ZM83.1223 34.24C81.8277 34.24 80.7427 34.0463 79.8457 33.6875L79.1029 35.5445C80.2859 36.0177 81.6329 36.24 83.1223 36.24V34.24ZM79.863 33.6946C78.966 33.3162 78.2464 32.8015 77.6829 32.1575L76.1777 33.4745C76.9582 34.3665 77.9346 35.0518 79.0856 35.5374L79.863 33.6946ZM77.6972 32.1743C77.1357 31.5032 76.6991 30.6885 76.3978 29.7129L74.4868 30.3031C74.8576 31.5035 75.4129 32.5608 76.1634 33.4577L77.6972 32.1743ZM76.4017 29.7258C76.1128 28.7435 75.9623 27.6324 75.9623 26.384H73.9623C73.9623 27.7916 74.1319 29.0965 74.4829 30.2902L76.4017 29.7258ZM75.9623 26.384C75.9623 24.7142 76.2332 23.3128 76.742 22.154L74.9107 21.35C74.2674 22.8152 73.9623 24.5018 73.9623 26.384H75.9623ZM76.7378 22.1633C77.2486 21.0313 78.0087 20.1735 79.0288 19.5615L77.9998 17.8465C76.6199 18.6745 75.5881 19.8487 74.9148 21.3407L76.7378 22.1633ZM79.0321 19.5595C80.0498 18.9435 81.4004 18.6 83.1463 18.6V16.6C81.1482 16.6 79.4108 16.9925 77.9965 17.8485L79.0321 19.5595ZM83.1463 18.6C84.8751 18.6 86.2074 18.9431 87.2075 19.5564L88.2531 17.8516C86.8532 16.9929 85.1295 16.6 83.1463 16.6V18.6ZM87.2158 19.5615C88.2304 20.1702 88.9809 21.0304 89.4769 22.1739L91.3117 21.3781C90.6557 19.8656 89.6302 18.6778 88.2448 17.8465L87.2158 19.5615ZM89.4828 22.1873C90.0045 23.3435 90.2823 24.7415 90.2823 26.408H92.2823C92.2823 24.5225 91.9681 22.8325 91.3058 21.3647L89.4828 22.1873ZM77.7783 26.408C77.7783 27.688 77.9399 28.838 78.291 29.8359L80.1776 29.1721C79.9207 28.442 79.7783 27.528 79.7783 26.408H77.7783ZM78.291 29.8359C78.6514 30.8603 79.2338 31.7042 80.0633 32.3056L81.2373 30.6864C80.7868 30.3598 80.4252 29.8757 80.1776 29.1721L78.291 29.8359ZM80.0633 32.3056C80.9158 32.9237 81.9617 33.192 83.1223 33.192V31.192C82.2669 31.192 81.6648 30.9963 81.2373 30.6864L80.0633 32.3056ZM83.1223 33.192C84.3054 33.192 85.3686 32.9279 86.215 32.2985L85.0216 30.6935C84.62 30.9921 84.0192 31.192 83.1223 31.192V33.192ZM86.2053 32.3056C87.0393 31.701 87.6153 30.8512 87.959 29.8202L86.0616 29.1878C85.8293 29.8848 85.4774 30.363 85.0313 30.6864L86.2053 32.3056ZM87.9536 29.8359C88.3047 28.838 88.4663 27.688 88.4663 26.408H86.4663C86.4663 27.528 86.3239 28.442 86.067 29.1721L87.9536 29.8359ZM88.4663 26.408C88.4663 24.4925 88.1129 22.8587 87.2944 21.6113L85.6223 22.7087C86.1477 23.5093 86.4663 24.7075 86.4663 26.408H88.4663ZM87.2944 21.6113C86.3899 20.233 84.922 19.624 83.1463 19.624V21.624C84.4426 21.624 85.1828 22.0389 85.6223 22.7087L87.2944 21.6113ZM83.1463 19.624C81.9737 19.624 80.9183 19.8905 80.0633 20.5104L81.2373 22.1296C81.6623 21.8215 82.2709 21.624 83.1463 21.624V19.624ZM80.0633 20.5104C79.2338 21.1118 78.6514 21.9557 78.291 22.9801L80.1776 23.6439C80.4252 22.9403 80.7868 22.4562 81.2373 22.1296L80.0633 20.5104ZM78.291 22.9801C77.9399 23.978 77.7783 25.128 77.7783 26.408H79.7783C79.7783 25.288 79.9207 24.374 80.1776 23.6439L78.291 22.9801ZM105.128 19.304L104.438 20.0281L104.444 20.0337L104.45 20.0392L105.128 19.304ZM106.328 25.376L107.277 25.6922L107.279 25.6856L106.328 25.376ZM105.2 27.2L104.482 26.5035L104.482 26.5039L105.2 27.2ZM103.16 28.448L103.497 29.3893L103.497 29.3893L103.16 28.448ZM98.4559 28.904V27.904H97.4559V28.904H98.4559ZM98.4559 35V36H99.4559V35H98.4559ZM94.8319 35H93.8319V36H94.8319V35ZM94.8319 17.864V16.864H93.8319V17.864H94.8319ZM98.4559 20.84V19.84H97.4559V20.84H98.4559ZM98.4559 25.928H97.4559V26.928H98.4559V25.928ZM101.432 25.664L101.097 24.7216L101.097 24.7216L101.432 25.664ZM102.584 24.824L101.768 24.246L101.768 24.246L102.584 24.824ZM102.296 21.464L101.628 22.2086L101.636 22.2151L101.643 22.2214L102.296 21.464ZM100.304 18.864C102.399 18.864 103.699 19.3245 104.438 20.0281L105.818 18.5799C104.54 17.3635 102.624 16.864 100.304 16.864V18.864ZM104.45 20.0392C105.229 20.7573 105.664 21.7722 105.664 23.216H107.664C107.664 21.3318 107.075 19.7387 105.806 18.5688L104.45 20.0392ZM105.664 23.216C105.664 23.867 105.567 24.4823 105.377 25.0664L107.279 25.6856C107.537 24.8937 107.664 24.069 107.664 23.216H105.664ZM105.379 25.0598C105.206 25.5794 104.913 26.0596 104.482 26.5035L105.917 27.8965C106.543 27.2524 107.002 26.5166 107.277 25.6922L105.379 25.0598ZM104.482 26.5039C104.098 26.9002 103.558 27.2429 102.822 27.5067L103.497 29.3893C104.457 29.0451 105.278 28.5558 105.918 27.8961L104.482 26.5039ZM102.822 27.5067C102.116 27.7601 101.19 27.904 100.016 27.904V29.904C101.338 29.904 102.508 29.7439 103.497 29.3893L102.822 27.5067ZM100.016 27.904H98.4559V29.904H100.016V27.904ZM97.4559 28.904V35H99.4559V28.904H97.4559ZM98.4559 34H94.8319V36H98.4559V34ZM95.8319 35V17.864H93.8319V35H95.8319ZM94.8319 18.864H100.304V16.864H94.8319V18.864ZM100.112 19.84H98.4559V21.84H100.112V19.84ZM97.4559 20.84V25.928H99.4559V20.84H97.4559ZM98.4559 26.928H99.6559V24.928H98.4559V26.928ZM99.6559 26.928C100.425 26.928 101.136 26.8302 101.766 26.6064L101.097 24.7216C100.736 24.8498 100.263 24.928 99.6559 24.928V26.928ZM101.766 26.6064C102.433 26.37 102.995 25.9739 103.4 25.402L101.768 24.246C101.629 24.4421 101.423 24.606 101.097 24.7216L101.766 26.6064ZM103.4 25.402C103.822 24.8057 103.992 24.0908 103.992 23.336H101.992C101.992 23.7972 101.889 24.0743 101.768 24.246L103.4 25.402ZM103.992 23.336C103.992 22.3138 103.708 21.3614 102.949 20.7066L101.643 22.2214C101.811 22.3666 101.992 22.6622 101.992 23.336H103.992ZM102.963 20.7194C102.234 20.0655 101.212 19.84 100.112 19.84V21.84C100.996 21.84 101.43 22.0305 101.628 22.2086L102.963 20.7194ZM115.23 24.92L114.337 25.3696L115.227 27.138L116.122 25.3721L115.23 24.92ZM118.806 17.864V16.864H118.192L117.914 17.4119L118.806 17.864ZM122.718 17.864L123.597 18.3416L124.4 16.864H122.718V17.864ZM117.03 28.328L116.152 27.8504L116.03 28.0738V28.328H117.03ZM117.03 35V36H118.03V35H117.03ZM113.43 35H112.43V36H113.43V35ZM113.43 28.448H114.43V28.1963L114.311 27.9746L113.43 28.448ZM107.742 17.864V16.864H106.07L106.861 18.3374L107.742 17.864ZM111.678 17.864L112.571 17.4144L112.294 16.864H111.678V17.864ZM116.122 25.3721L119.698 18.3161L117.914 17.4119L114.338 24.4679L116.122 25.3721ZM118.806 18.864H122.718V16.864H118.806V18.864ZM121.84 17.3864L116.152 27.8504L117.909 28.8056L123.597 18.3416L121.84 17.3864ZM116.03 28.328V35H118.03V28.328H116.03ZM117.03 34H113.43V36H117.03V34ZM114.43 35V28.448H112.43V35H114.43ZM114.311 27.9746L108.623 17.3906L106.861 18.3374L112.549 28.9214L114.311 27.9746ZM107.742 18.864H111.678V16.864H107.742V18.864ZM110.785 18.3136L114.337 25.3696L116.123 24.4704L112.571 17.4144L110.785 18.3136Z" fill="#1DBB2D"/>
<path d="M135.52 32.888L134.685 32.3374L134.685 32.3374L135.52 32.888ZM133.36 34.64L133.756 35.5584L133.763 35.5551L133.36 34.64ZM128.2 35.12L128.059 36.11L128.062 36.1105L128.2 35.12ZM126.568 34.784L126.27 35.7385L126.287 35.7439L126.305 35.7488L126.568 34.784ZM125.104 34.208H124.104V34.8357L124.669 35.1086L125.104 34.208ZM125.104 30.824L125.5 29.9058L124.104 29.3036V30.824H125.104ZM127.624 31.808L127.292 32.7513L127.302 32.755L127.313 32.7584L127.624 31.808ZM131.656 32L131.257 31.0829L131.25 31.0862L131.242 31.0896L131.656 32ZM132.448 31.352L131.608 30.8088L131.597 30.8266L131.586 30.845L132.448 31.352ZM132.256 29.312L131.53 29.9997L131.539 30.0096L131.549 30.0191L132.256 29.312ZM131.08 28.472L130.599 29.3488L130.61 29.3549L130.621 29.3606L131.08 28.472ZM129.376 27.608L128.943 28.5095L128.947 28.5113L129.376 27.608ZM128.08 26.936L127.574 27.7987L127.586 27.8053L127.597 27.8116L128.08 26.936ZM126.736 25.952L126.043 26.6728L126.057 26.6864L126.072 26.6994L126.736 25.952ZM125.704 24.512L124.804 24.9489H124.804L125.704 24.512ZM125.992 19.88L125.154 19.3337L125.151 19.3383L125.992 19.88ZM128.008 18.2L127.608 17.2834L127.602 17.2862L128.008 18.2ZM133.648 17.936L133.396 18.9038L133.401 18.905L133.648 17.936ZM136.192 18.824L137.116 19.2075L137.492 18.3003L136.592 17.9075L136.192 18.824ZM135.016 21.656L134.638 22.5818L135.558 22.9575L135.94 22.0395L135.016 21.656ZM132.904 20.912L132.633 21.8744L132.633 21.8744L132.904 20.912ZM129.832 20.864L130.242 21.7759L130.242 21.7759L129.832 20.864ZM129.088 21.464L128.264 20.8975L128.252 20.9155L128.24 20.934L129.088 21.464ZM129.208 23.408L128.44 24.0482L128.449 24.059L128.458 24.0696L129.208 23.408ZM130.288 24.2L130.759 23.3176L130.288 24.2ZM132.088 25.112L131.649 26.0105L131.661 26.0161L132.088 25.112ZM134.32 26.408L133.727 27.2131L133.737 27.2203L134.32 26.408ZM135.76 27.992L134.885 28.4757L135.76 27.992ZM135.264 30.248C135.264 31.0844 135.061 31.7678 134.685 32.3374L136.355 33.4386C136.971 32.5042 137.264 31.4276 137.264 30.248H135.264ZM134.685 32.3374C134.31 32.9066 133.751 33.3749 132.957 33.7249L133.763 35.5551C134.857 35.0731 135.738 34.3734 136.355 33.4386L134.685 32.3374ZM132.964 33.7217C132.195 34.0532 131.202 34.24 129.952 34.24V36.24C131.39 36.24 132.669 36.0268 133.756 35.5583L132.964 33.7217ZM129.952 34.24C129.405 34.24 128.867 34.2031 128.338 34.1295L128.062 36.1105C128.685 36.1969 129.315 36.24 129.952 36.24V34.24ZM128.341 34.1301C127.821 34.0557 127.318 33.952 126.831 33.8192L126.305 35.7488C126.874 35.904 127.459 36.0243 128.059 36.1099L128.341 34.1301ZM126.866 33.8295C126.399 33.6835 125.957 33.5093 125.539 33.3074L124.669 35.1086C125.179 35.3547 125.713 35.5645 126.27 35.7385L126.866 33.8295ZM126.104 34.208V30.824H124.104V34.208H126.104ZM124.708 31.7422C125.546 32.1036 126.407 32.4399 127.292 32.7513L127.956 30.8647C127.113 30.5681 126.294 30.2484 125.5 29.9058L124.708 31.7422ZM127.313 32.7584C128.286 33.0769 129.263 33.24 130.24 33.24V31.24C129.489 31.24 128.722 31.1151 127.935 30.8576L127.313 32.7584ZM130.24 33.24C130.906 33.24 131.537 33.1524 132.07 32.9104L131.242 31.0896C131.071 31.1676 130.758 31.24 130.24 31.24V33.24ZM132.055 32.9171C132.564 32.6958 133.017 32.3574 133.31 31.859L131.586 30.845C131.559 30.8906 131.484 30.9842 131.257 31.0829L132.055 32.9171ZM133.288 31.8953C133.577 31.4474 133.712 30.9434 133.712 30.416H131.712C131.712 30.5926 131.671 30.7126 131.608 30.8088L133.288 31.8953ZM133.712 30.416C133.712 29.7202 133.456 29.0974 132.963 28.6049L131.549 30.0191C131.664 30.1346 131.712 30.2478 131.712 30.416H133.712ZM132.982 28.6243C132.596 28.2167 132.103 27.8748 131.539 27.5834L130.621 29.3606C131.049 29.5812 131.34 29.7993 131.53 29.9997L132.982 28.6243ZM131.561 27.5952C131.044 27.3119 130.458 27.0151 129.805 26.7047L128.947 28.5113C129.574 28.8089 130.124 29.0881 130.599 29.3488L131.561 27.5952ZM129.809 26.7065C129.429 26.524 129.014 26.309 128.563 26.0604L127.597 27.8116C128.074 28.075 128.523 28.308 128.943 28.5095L129.809 26.7065ZM128.586 26.0733C128.182 25.8368 127.787 25.5483 127.4 25.2046L126.072 26.6994C126.549 27.1237 127.05 27.4912 127.574 27.7987L128.586 26.0733ZM127.429 25.2312C127.105 24.9191 126.828 24.5374 126.604 24.0751L124.804 24.9489C125.124 25.6066 125.535 26.1849 126.043 26.6728L127.429 25.2312ZM126.604 24.0751C126.413 23.6819 126.296 23.1668 126.296 22.496H124.296C124.296 23.3932 124.451 24.2221 124.804 24.9489L126.604 24.0751ZM126.296 22.496C126.296 21.6261 126.491 20.951 126.833 20.4217L125.151 19.3383C124.565 20.249 124.296 21.3179 124.296 22.496H126.296ZM126.83 20.4263C127.196 19.8642 127.712 19.4257 128.414 19.1138L127.602 17.2862C126.576 17.7423 125.748 18.4238 125.154 19.3337L126.83 20.4263ZM128.408 19.1165C129.136 18.7988 130.026 18.624 131.104 18.624V16.624C129.814 16.624 128.64 16.8332 127.608 17.2835L128.408 19.1165ZM131.104 18.624C131.922 18.624 132.685 18.7189 133.396 18.9038L133.9 16.9682C133.011 16.7371 132.078 16.624 131.104 16.624V18.624ZM133.401 18.905C134.158 19.098 134.955 19.3752 135.792 19.7405L136.592 17.9075C135.669 17.5048 134.77 17.19 133.895 16.967L133.401 18.905ZM135.268 18.4405L134.092 21.2725L135.94 22.0395L137.116 19.2075L135.268 18.4405ZM135.394 20.7302C134.585 20.4 133.845 20.1383 133.175 19.9495L132.633 21.8744C133.211 22.0377 133.879 22.272 134.638 22.5818L135.394 20.7302ZM133.175 19.9496C132.462 19.7483 131.731 19.648 130.984 19.648V21.648C131.549 21.648 132.098 21.7237 132.633 21.8744L133.175 19.9496ZM130.984 19.648C130.432 19.648 129.901 19.7363 129.422 19.9521L130.242 21.7759C130.403 21.7037 130.64 21.648 130.984 21.648V19.648ZM129.422 19.9521C128.957 20.1612 128.557 20.4718 128.264 20.8975L129.912 22.0305C129.971 21.9442 130.067 21.8548 130.242 21.7759L129.422 19.9521ZM128.24 20.934C127.965 21.3738 127.848 21.8682 127.848 22.376H129.848C129.848 22.1798 129.891 22.0662 129.936 21.994L128.24 20.934ZM127.848 22.376C127.848 22.993 128.04 23.5679 128.44 24.0482L129.976 22.7678C129.896 22.6721 129.848 22.559 129.848 22.376H127.848ZM128.458 24.0696C128.806 24.4643 129.279 24.7954 129.817 25.0824L130.759 23.3176C130.337 23.0926 130.09 22.8957 129.958 22.7464L128.458 24.0696ZM129.817 25.0824C130.311 25.3458 130.923 25.6554 131.649 26.0104L132.527 24.2136C131.813 23.8646 131.225 23.5662 130.759 23.3176L129.817 25.0824ZM131.661 26.0161C132.498 26.4119 133.183 26.8124 133.727 27.2131L134.913 25.6029C134.241 25.1076 133.438 24.6441 132.515 24.2079L131.661 26.0161ZM133.737 27.2203C134.253 27.591 134.628 28.0107 134.885 28.4757L136.635 27.5083C136.22 26.7573 135.635 26.121 134.903 25.5957L133.737 27.2203ZM134.885 28.4757C135.119 28.8988 135.264 29.4734 135.264 30.248H137.264C137.264 29.2306 137.073 28.3012 136.635 27.5083L134.885 28.4757ZM153.419 35V36H154.419V35H153.419ZM149.795 35H148.795V36H149.795V35ZM149.795 27.608H150.795V26.608H149.795V27.608ZM143.003 27.608V26.608H142.003V27.608H143.003ZM143.003 35V36H144.003V35H143.003ZM139.379 35H138.379V36H139.379V35ZM139.379 17.864V16.864H138.379V17.864H139.379ZM143.003 17.864H144.003V16.864H143.003V17.864ZM143.003 24.584H142.003V25.584H143.003V24.584ZM149.795 24.584V25.584H150.795V24.584H149.795ZM149.795 17.864V16.864H148.795V17.864H149.795ZM153.419 17.864H154.419V16.864H153.419V17.864ZM153.419 34H149.795V36H153.419V34ZM150.795 35V27.608H148.795V35H150.795ZM149.795 26.608H143.003V28.608H149.795V26.608ZM142.003 27.608V35H144.003V27.608H142.003ZM143.003 34H139.379V36H143.003V34ZM140.379 35V17.864H138.379V35H140.379ZM139.379 18.864H143.003V16.864H139.379V18.864ZM142.003 17.864V24.584H144.003V17.864H142.003ZM143.003 25.584H149.795V23.584H143.003V25.584ZM150.795 24.584V17.864H148.795V24.584H150.795ZM149.795 18.864H153.419V16.864H149.795V18.864ZM152.419 17.864V35H154.419V17.864H152.419ZM172.778 30.032L171.823 29.7369L171.82 29.746L172.778 30.032ZM171.29 32.816L170.531 32.1652L170.523 32.1743L171.29 32.816ZM168.746 34.616L168.375 33.6875L168.37 33.6895L168.746 34.616ZM161.474 34.616L161.086 35.5374L161.094 35.541L161.103 35.5445L161.474 34.616ZM158.93 32.816L158.163 33.4577L158.17 33.4662L158.178 33.4745L158.93 32.816ZM157.442 30.008L156.483 30.2902L156.487 30.3031L157.442 30.008ZM157.826 21.752L156.915 21.3407L156.911 21.35L157.826 21.752ZM160.514 18.704L161.029 19.5615L161.032 19.5595L160.514 18.704ZM169.73 18.704L169.207 19.5565L169.216 19.5615L169.73 18.704ZM172.394 21.776L171.477 22.1739L171.48 22.1806L171.483 22.1873L172.394 21.776ZM162.65 31.496L163.237 30.6864L162.65 31.496ZM167.618 31.496L167.031 30.6863L167.022 30.6935L167.618 31.496ZM169.01 29.504L168.067 29.1721L168.064 29.1799L168.062 29.1878L169.01 29.504ZM168.458 22.16L167.622 22.7087V22.7087L168.458 22.16ZM162.65 21.32L162.063 20.5104H162.063L162.65 21.32ZM172.282 26.408C172.282 27.6522 172.125 28.7589 171.823 29.7369L173.734 30.3271C174.104 29.1292 174.282 27.8198 174.282 26.408H172.282ZM171.82 29.746C171.537 30.6951 171.105 31.4961 170.531 32.1652L172.05 33.4668C172.82 32.5679 173.38 31.5129 173.737 30.318L171.82 29.746ZM170.523 32.1743C169.983 32.8196 169.276 33.3269 168.375 33.6875L169.118 35.5445C170.296 35.0731 171.285 34.3804 172.057 33.4577L170.523 32.1743ZM168.37 33.6895C167.492 34.0462 166.417 34.24 165.122 34.24V36.24C166.611 36.24 167.953 36.0178 169.123 35.5425L168.37 33.6895ZM165.122 34.24C163.828 34.24 162.743 34.0463 161.846 33.6875L161.103 35.5445C162.286 36.0177 163.633 36.24 165.122 36.24V34.24ZM161.863 33.6946C160.966 33.3162 160.246 32.8015 159.683 32.1575L158.178 33.4745C158.958 34.3665 159.935 35.0518 161.086 35.5374L161.863 33.6946ZM159.697 32.1743C159.136 31.5032 158.699 30.6885 158.398 29.7129L156.487 30.3031C156.858 31.5035 157.413 32.5608 158.163 33.4577L159.697 32.1743ZM158.402 29.7258C158.113 28.7435 157.962 27.6324 157.962 26.384H155.962C155.962 27.7916 156.132 29.0965 156.483 30.2902L158.402 29.7258ZM157.962 26.384C157.962 24.7142 158.233 23.3128 158.742 22.154L156.911 21.35C156.267 22.8152 155.962 24.5018 155.962 26.384H157.962ZM158.738 22.1633C159.249 21.0313 160.009 20.1735 161.029 19.5615L160 17.8465C158.62 18.6745 157.588 19.8487 156.915 21.3407L158.738 22.1633ZM161.032 19.5595C162.05 18.9435 163.4 18.6 165.146 18.6V16.6C163.148 16.6 161.411 16.9925 159.997 17.8485L161.032 19.5595ZM165.146 18.6C166.875 18.6 168.207 18.9431 169.207 19.5564L170.253 17.8516C168.853 16.9929 167.13 16.6 165.146 16.6V18.6ZM169.216 19.5615C170.23 20.1702 170.981 21.0304 171.477 22.1739L173.312 21.3781C172.656 19.8656 171.63 18.6778 170.245 17.8465L169.216 19.5615ZM171.483 22.1873C172.005 23.3435 172.282 24.7415 172.282 26.408H174.282C174.282 24.5225 173.968 22.8325 173.306 21.3647L171.483 22.1873ZM159.778 26.408C159.778 27.688 159.94 28.838 160.291 29.8359L162.178 29.1721C161.921 28.442 161.778 27.528 161.778 26.408H159.778ZM160.291 29.8359C160.651 30.8603 161.234 31.7042 162.063 32.3056L163.237 30.6864C162.787 30.3598 162.425 29.8757 162.178 29.1721L160.291 29.8359ZM162.063 32.3056C162.916 32.9237 163.962 33.192 165.122 33.192V31.192C164.267 31.192 163.665 30.9963 163.237 30.6864L162.063 32.3056ZM165.122 33.192C166.305 33.192 167.369 32.9279 168.215 32.2985L167.022 30.6935C166.62 30.9921 166.019 31.192 165.122 31.192V33.192ZM168.205 32.3056C169.039 31.701 169.615 30.8512 169.959 29.8202L168.062 29.1878C167.829 29.8848 167.477 30.363 167.031 30.6864L168.205 32.3056ZM169.954 29.8359C170.305 28.838 170.466 27.688 170.466 26.408H168.466C168.466 27.528 168.324 28.442 168.067 29.1721L169.954 29.8359ZM170.466 26.408C170.466 24.4925 170.113 22.8587 169.294 21.6113L167.622 22.7087C168.148 23.5093 168.466 24.7075 168.466 26.408H170.466ZM169.294 21.6113C168.39 20.233 166.922 19.624 165.146 19.624V21.624C166.443 21.624 167.183 22.0389 167.622 22.7087L169.294 21.6113ZM165.146 19.624C163.974 19.624 162.918 19.8905 162.063 20.5104L163.237 22.1296C163.662 21.8215 164.271 21.624 165.146 21.624V19.624ZM162.063 20.5104C161.234 21.1118 160.651 21.9557 160.291 22.9801L162.178 23.6439C162.425 22.9403 162.787 22.4562 163.237 22.1296L162.063 20.5104ZM160.291 22.9801C159.94 23.978 159.778 25.128 159.778 26.408H161.778C161.778 25.288 161.921 24.374 162.178 23.6439L160.291 22.9801ZM187.128 19.304L186.438 20.0281L186.444 20.0337L186.45 20.0392L187.128 19.304ZM188.328 25.376L189.277 25.6922L189.279 25.6856L188.328 25.376ZM187.2 27.2L186.482 26.5035L186.482 26.5039L187.2 27.2ZM185.16 28.448L185.497 29.3893L185.16 28.448ZM180.456 28.904V27.904H179.456V28.904H180.456ZM180.456 35V36H181.456V35H180.456ZM176.832 35H175.832V36H176.832V35ZM176.832 17.864V16.864H175.832V17.864H176.832ZM180.456 20.84V19.84H179.456V20.84H180.456ZM180.456 25.928H179.456V26.928H180.456V25.928ZM183.432 25.664L183.097 24.7216V24.7216L183.432 25.664ZM184.584 24.824L183.768 24.246H183.768L184.584 24.824ZM184.296 21.464L183.628 22.2086L183.636 22.2151L183.643 22.2214L184.296 21.464ZM182.304 18.864C184.399 18.864 185.699 19.3245 186.438 20.0281L187.818 18.5799C186.54 17.3635 184.624 16.864 182.304 16.864V18.864ZM186.45 20.0392C187.229 20.7573 187.664 21.7722 187.664 23.216H189.664C189.664 21.3318 189.075 19.7387 187.806 18.5688L186.45 20.0392ZM187.664 23.216C187.664 23.867 187.567 24.4823 187.377 25.0664L189.279 25.6856C189.537 24.8937 189.664 24.069 189.664 23.216H187.664ZM187.379 25.0598C187.206 25.5794 186.913 26.0596 186.482 26.5035L187.917 27.8965C188.543 27.2524 189.002 26.5166 189.277 25.6922L187.379 25.0598ZM186.482 26.5039C186.098 26.9002 185.558 27.2429 184.822 27.5067L185.497 29.3893C186.457 29.0451 187.278 28.5558 187.918 27.8961L186.482 26.5039ZM184.822 27.5067C184.116 27.7601 183.19 27.904 182.016 27.904V29.904C183.338 29.904 184.508 29.7439 185.497 29.3893L184.822 27.5067ZM182.016 27.904H180.456V29.904H182.016V27.904ZM179.456 28.904V35H181.456V28.904H179.456ZM180.456 34H176.832V36H180.456V34ZM177.832 35V17.864H175.832V35H177.832ZM176.832 18.864H182.304V16.864H176.832V18.864ZM182.112 19.84H180.456V21.84H182.112V19.84ZM179.456 20.84V25.928H181.456V20.84H179.456ZM180.456 26.928H181.656V24.928H180.456V26.928ZM181.656 26.928C182.425 26.928 183.136 26.8302 183.766 26.6064L183.097 24.7216C182.736 24.8498 182.263 24.928 181.656 24.928V26.928ZM183.766 26.6064C184.433 26.37 184.995 25.9739 185.4 25.402L183.768 24.246C183.629 24.4421 183.423 24.606 183.097 24.7216L183.766 26.6064ZM185.4 25.402C185.822 24.8057 185.992 24.0908 185.992 23.336H183.992C183.992 23.7972 183.889 24.0743 183.768 24.246L185.4 25.402ZM185.992 23.336C185.992 22.3138 185.708 21.3614 184.949 20.7066L183.643 22.2214C183.811 22.3666 183.992 22.6622 183.992 23.336H185.992ZM184.963 20.7194C184.234 20.0655 183.212 19.84 182.112 19.84V21.84C182.996 21.84 183.43 22.0305 183.628 22.2086L184.963 20.7194Z" fill="#1DBB2D"/>
<path d="M23.7803 39C23.7759 39 23.7714 38.9998 23.767 38.9998H0.635078C0.454499 38.9998 0.282388 38.933 0.162143 38.8162C0.0416865 38.6992 -0.0158954 38.5433 0.00379261 38.3873L3.95558 7.23777C3.99093 6.95792 4.26296 6.74633 4.58686 6.74633H10.1315V4.55373C10.1315 2.04283 12.482 0 15.371 0C15.8528 0 16.3199 0.0568527 16.7634 0.163198C17.2069 0.0568527 17.6739 0 18.1557 0C21.0448 0 23.3953 2.04283 23.3953 4.55373V6.74633H29.2902C29.62 6.74633 29.8946 6.96546 29.923 7.25101L32.9975 38.3989C33.0125 38.5459 32.96 38.6977 32.8379 38.8162C32.7259 38.9247 32.5758 38.9858 32.4208 38.9976C32.4208 38.9978 32.4198 38.9978 32.4189 38.9978C32.4181 38.9976 32.4176 38.9976 32.4168 38.998C32.4162 38.998 32.4155 38.998 32.4149 38.998C32.4143 38.9982 32.4138 38.998 32.4128 38.9982C32.4126 38.9983 32.4117 38.9982 32.4109 38.9983C32.41 38.9982 32.4092 38.998 32.4088 38.9985C32.4079 38.9985 32.4079 38.9985 32.4066 38.9985C32.406 38.9985 32.406 38.9989 32.4045 38.9987C32.4037 38.9985 32.4035 38.9985 32.4024 38.9987C32.4016 38.9989 32.4009 38.9987 32.4003 38.9989C32.399 38.9987 32.3984 38.9991 32.3982 38.9991C32.3973 38.9991 32.3967 38.9991 32.3958 38.9991C32.395 38.9993 32.3944 38.9993 32.3935 38.9993C32.3933 38.9993 32.3933 38.9993 32.3931 38.9993C32.3823 38.9996 32.3715 38.9998 32.3609 38.9998H23.7926C23.789 38.9998 23.7848 39 23.7803 39ZM24.8162 37.8959H30.7048L26.6592 34.7445L24.8162 37.8959ZM1.34406 37.8959H23.1916L24.9546 17.4554C24.9551 17.4482 24.9557 17.4413 24.9565 17.4341L25.783 7.85027H20.6104V9.65943C20.6104 9.9643 20.326 10.2114 19.9753 10.2114C19.6245 10.2114 19.3402 9.9643 19.3402 9.65943V7.85027H11.4015V9.65943C11.4015 9.9643 11.1171 10.2114 10.7664 10.2114C10.4156 10.2114 10.1313 9.9643 10.1313 9.65943V7.85027H5.1557L1.34406 37.8959ZM27.0896 33.5972L31.5952 37.1068L28.7072 7.85027H27.0568L26.2248 17.495L27.0896 33.5972ZM25.4413 26.5809L24.6513 35.7417L25.8253 33.734L25.4413 26.5809ZM20.6106 6.74633H22.1251V4.55373C22.1251 2.85993 20.713 1.44726 18.8583 1.15803C19.9329 1.9926 20.6104 3.20564 20.6104 4.55373V6.74633H20.6106ZM14.1866 6.74633H19.3404V4.55373C19.3404 3.07722 18.2673 1.81413 16.7634 1.32288C15.2595 1.81413 14.1866 3.07703 14.1866 4.55373V6.74633ZM11.4017 6.74633H12.9164V4.55373C12.9164 3.20564 13.5938 1.9926 14.6684 1.15803C12.8137 1.44726 11.4017 2.85993 11.4017 4.55373V6.74633Z" fill="#1DBB2D"/>
</svg>
